<svg xmlns="http://www.w3.org/2000/svg" xml:space="preserve" viewBox="-795 921.3 1030 845" width="1030" height="845">
  <g style="display:inline">
    <g style="opacity:1;stroke:#fff;stroke-width:15.5221653;stroke-linecap:round;stroke-linejoin:round;stroke-miterlimit:4;stroke-dasharray:none;stroke-opacity:1;paint-order:stroke markers fill">
      <path d="M1303.3 1596.2c7.8 0 15.4-6.9 15-15-.4-8.1-6.6-15-15-15-7.8 0-15.4 6.9-15 15 .4 8.1 6.6 15 15 15z" style="stroke:#fff;stroke-width:15.5221653;stroke-linecap:round;stroke-linejoin:round;stroke-miterlimit:4;stroke-dasharray:none;stroke-opacity:1;paint-order:stroke markers fill" transform="matrix(-.32212 0 0 .32212 7.11 883.222)"/>
      <path d="M-20.4 2115.3c-.1 3.8.1-3.8 0 0-.1.8 1.5-3.3-.3.2-1.6 3.1 1.6-1.5 0 .2-1.3 1.3-2.5 2.6-3.8 3.8-3 2.8 1.6-.9-1.4 1.1-1.4.9-2.8 1.9-4.2 2.8-3.9 2.4-7.9 4.4-12 6.4-18.2 8.6-43.6 15.7-65.6 21.2-62.6 15.6-127 25-191 32.2-61 6.9-121.9 10.1-183.2 11.9-57.9 1.7-107.1 32.5-131.8 85.1-14.2 30.3-22.7 65.6-22.3 99.3.1 5.1 2.8 10.5 7.4 13 68.1 35.3 141.9 59 216 77.8 82.2 20.8 165.9 35.3 249.9 46.6 128.2 17.2 259 28.9 388.5 27 46.1-.7 91.9-8.1 137.3-15.3 70.9-11.3 141.4-24.3 211.9-37.7 55.3-10.5 110.6-21.3 165.8-32.4 6.3-1.3 12.6-2.6 18.9-3.8 8.9-1.8 18.3-1.5 27.4-1.9 16.1-.8 32.1-1.6 48.2-2.5 57.4-3.3 114.7-7.6 171.9-12.7 140-12.7 280.2-29.5 418.7-53.8 2.1-.4 4.2-.7 6.2-1.1 5.1-.9 9-5.8 10.5-10.5 17.4-56.2 24.3-117.2 13.2-175.1-11.3-58.8-27.6-116.9-43.9-174.5-16.8-59.4-34.5-118.5-53.9-177.1-5.8-17.4-11.5-35-18.9-51.9-.8-1.9-1.6-3.8-2.6-5.5-1-1.8-5.4-8-2.6-3.6-.6-.9-1.4-3.5-.4-.3-.4-1.3-.9-2.5-1.2-3.9-.7-2.6-1.3-5.3-1.7-8-1.2-7.2-1.7-15.2-2.2-22.9-1.5-27.8.7-55.7-1.6-83.5-2.3-28.3-5.3-56.5-8.3-84.7-1.5 3.5-2.9 7.1-4.4 10.6 6.2-7.2 7.7-16.3 9-25.4 2-14.1 2.8-28.3 3.5-42.4.7-15.1 1-30.1 1.1-45.2.2-14 1.8-29.3-3.1-42.7-6.3-17-19-30.5-33-41.6-15.5-12.3-31.6-21.8-52.2-18.5-8.3 1.3-16.1 4.9-24.4 6.5-8.1 1.5-14.2 2.1-24 2.8-65 5-130.8 2.6-195.9 2.4-63.151-9.978-109.297-16.564-187.256-30.488-16.132-4.398-19.544-2.312-27.244-7.112-3.3-2-6.4-4.2-9.6-6.4-3.6-2.5-.2 0-1.5-1.1-1.2-1-2.4-2-3.5-3-3.2-2.8-5.9-5.9-8.9-9-2.5-2.6 1.9 3.2-.4-.7-10-16.5-36-1.4-25.9 15.1 12.2 20.2 37 33.7 57.7 42.9 71 31.3 149.7 29.5 225.6 29.7 41.3.1 82.7.4 124-.3 26.7-.5 53.7-1.1 80.1-5.3 9.4-1.5 19.3-6.5 28.5-7 16.6-.9 36.6 19.3 45.1 32.1 9 13.7 6.1 31.2 5.8 46.8-.2 17.7-.7 35.5-1.7 53.2-.7 12.2-2.8 23.4-4.5 35.2-.5 3.7 1-2.7 0 0 .4-1 2.9-6.8-.8 1.1-1.3 2.7-2 5.1-2 8.1 0 2.9.6 6 .9 8.9 2.6 25.3 5.3 50.7 7.4 76 1.6 19.4.5 38.9.7 58.4.2 14.5.7 29.1 2.4 43.6 1.3 10.6 2.5 22.4 8.6 31.5 4.6 6.9 1.8 2.9 1.1 1.4.2.5.6.8.8 1.3.6 1.7 1.6 3.4 2.4 5.1.9 1.9-1.4-3.6-.1-.2.5 1.3 1 2.6 1.6 3.9 1.2 3.1 2.4 6.3 3.6 9.5 6.6 18.1 12.6 36.3 18.5 54.6 16.9 52.3 32.6 105 47.5 157.9 14.4 51.1 28.5 102.4 39.6 154.4 2.1 9.7 4 19.4 5.6 29.1.3 1.7.6 3.3.8 5 .1.8 1 7.3.5 3 .4 3.3.8 6.6 1.1 10 2.5 35.3-3.9 72.5-12 106.8-1.7 7.4-3.6 14.8-5.8 22.1l10.5-10.5c-113.5 20.6-228.4 34.7-343 46.6-54.5 5.7-109 10.5-163.7 14.6-28.7 2.1-57.4 4-86.2 5.6-26 1.5-53.4.2-79 5.1-43.8 8.5-87.4 17.5-131.2 26-70.6 13.7-141.3 27-212.2 39.1-53.7 9.2-106.3 19.5-160.1 22.4-44 2.4-88.4.5-132.4-1.5-71.1-3.1-142.2-8.8-212.9-16.7-82.5-9.2-164.8-21.7-246-39.1-76.1-16.4-152.3-36.7-224.1-67.2-15.9-6.8-31.5-14.1-46.8-22.1 2.5 4.3 5 8.6 7.4 13-.1-8.4.7-16.8 1.7-25 .4-3.5-.3 1.9.4-2.6.3-2.1.7-4.3 1.1-6.4.8-4.7 1.8-9.3 2.9-13.9 2.5-10.3 5.6-20.6 9.6-30.4 7.7-18.9 20.8-38.8 38-52.5 21.5-17 48.8-23.3 75.8-23.6 61.2-.5 122.3-5.4 183.1-12.4 65.7-7.6 131.7-17.1 195.8-33.2 25.5-6.4 51.5-13.8 75-25.8 15.1-7.7 31.9-19.6 32.3-38.2.3-19.2-29.7-19.1-30.2.2z" style="stroke:#fff;stroke-width:15.5221653;stroke-linecap:round;stroke-linejoin:round;stroke-miterlimit:4;stroke-dasharray:none;stroke-opacity:1;paint-order:stroke markers fill" transform="matrix(-.32212 0 0 .32212 7.11 883.222)"/>
      <path d="M29.2 2282.5c7.8 0 15.4-6.9 15-15-.4-8.1-6.6-15-15-15-7.8 0-15.4 6.9-15 15 .3 8.2 6.6 15 15 15z" style="stroke:#fff;stroke-width:15.5221653;stroke-linecap:round;stroke-linejoin:round;stroke-miterlimit:4;stroke-dasharray:none;stroke-opacity:1;paint-order:stroke markers fill" transform="matrix(-.32212 0 0 .32212 7.11 883.222)"/>
      <path d="M624.6 2468.8c-.1-25.5-6.2-50.5-18.6-72.8-12.3-22.1-30.2-40.1-50.2-55.2-43.1-32.5-96.8-50.5-148.8-62.9-100.3-23.9-205.2-29.4-308-27.9-23.3.3-46.6.9-69.8 2.6 4.8 3.7 9.6 7.3 14.5 11-1.7-7.3-3.3-14.6-5-21.9-3.9-17.3-7.9-34.6-11.8-51.9-7.2-31.9-15.5-63.7-21.7-95.7-.3-1.5-.6-3-.8-4.5-.1-.8-.7-4.7-.5-3 .2 1.7-.2-2.1-.3-2.9-.2-1.6-.3-3.2-.4-4.8-.3-5.4-.4-10.8-.1-16.2.2-2.6.4-5.2.7-7.7-.3 3-.1.8.2-.9.2-1.4.5-2.8.8-4.2 1-4.8 2.4-9.6 4-14.2.4-1.1.9-2.3 1.3-3.4.9-2.5-1.1 2.4.3-.7 1.1-2.4 2.2-4.7 3.4-7 2.3-4.3 4.9-8.6 7.7-12.6.7-1 1.4-2 2.2-3 .8-1.1 2.4-3.2.6-.8 1.6-2 3.2-4 4.8-5.9 3.5-4.1 7.3-8 11.2-11.8 4.1-3.9 8.3-7.7 12.6-11.3 2-1.7 4.1-3.3 6.1-5 2.6-2.1-.7.5 1.3-1 1.3-1 2.6-2 4-3 10-7.4 20.3-14.2 30.9-20.8 23.6-14.7 47.9-28.1 72.2-41.6 56.5-31.4 112.2-64 162.5-104.9 22.3-18.2 43-37.2 59.7-60.7 15.3-21.6 27.5-45.3 38.3-69.3 24.5-54.9 42.3-112.5 58.7-170.2 7.3-25.9 14.4-52 21.6-77.9 3.1-11.2 6.3-22.4 9.7-33.5.8-2.5 1.5-5 2.3-7.5.4-1.2.9-2.4 1.3-3.7 1.2-3.4-1 1.8.6-1.4 2.1-4.4 4.5-8.4 7.2-12.5 1.9-2.8-1.4 1.4.4-.5.8-.9 1.5-1.8 2.2-2.6 1.6-1.8 3.4-3.6 5.2-5.2.7-.7 1.5-1.3 2.2-1.9l1.5-1.2s-2.5 1.8-1.1.9c2-1.4 4-2.8 6-4.1 3.9-2.4 8.1-4.4 12.2-6.4-3.7 1.8-.3.2.6-.2l3.3-1.2c2.4-.8 4.8-1.6 7.3-2.3 4.7-1.3 9.4-2.4 14.2-3.2 1.2-.2 2.4-.4 3.7-.6l2.1-.3s-3.1.3-1.3.2c2.7-.2 5.3-.6 8-.8 10.2-.9 20.5-1 30.8-.6 10 .4 19.9 1.3 29.9 2.5 1.9.2 2.4.3 0 0 1.1.2 2.3.3 3.4.5 2.4.4 4.8.7 7.2 1.1 4.2.7 8.4 1.4 12.6 2.3 12.1 2.4 24.2 5.2 36.1 8.5l5.1 1.5c7.7 2.4 16.4-2.9 18.5-10.5 2.2-8.1-2.7-16-10.5-18.5-23.7-7.5-48.5-12-73-15.1-40.7-5.1-87.3-5.5-123.7 16-19.5 11.5-33.6 29.3-40.7 50.7-7.6 22.9-13.5 46.5-19.9 69.7-15.7 57.2-31.5 114.6-52.2 170.2-2.6 7-5.3 14-8.1 21-1.3 3.3-2.7 6.6-4.1 9.9 0 0-1 2.3-.4 1 .6-1.5-.6 1.4-.7 1.7-.8 1.8-1.6 3.7-2.4 5.5-5.6 12.6-11.5 25.1-18.1 37.3-6.2 11.5-12.8 22.7-20.3 33.4-1.7 2.4-3.4 4.8-5.2 7.2-.5.7-1 1.3-1.5 2 .1-.1 1.5-1.9.4-.6-1 1.3-2 2.6-3.1 3.8-3.6 4.4-7.4 8.7-11.5 12.7-23.2 23.5-49.1 43.1-75.9 61.6-26.8 18.5-54.7 35.4-83 51.5-47.7 27.2-98 51.7-141.7 85.2-18.9 14.5-36.4 30.7-49.6 50.7-12.4 18.7-19.4 40.3-21 62.7-2.2 30.5 7.5 60.9 14.2 90.3 5.8 25.4 11.6 50.8 17.3 76.2 3.2 14.3 5.5 29.3 9.8 43.3 0 .1 0 .2.1.3 1.4 6 8.2 11.5 14.5 11 61-4.4 122.7-3.7 183.6-.5 26.8 1.4 53.6 3.6 80.2 6.6 25.9 2.9 51.3 6.7 78.1 12.1 52 10.4 103.3 24.7 148.2 51.6 12.3 7.4 21.1 13.6 30.7 22.2 4.9 4.4 9.6 9.1 14 14 1.9 2.1 3.6 4.2 5.4 6.4 2.9 3.5-1.6-2.3 1 1.3 1.1 1.5 2.1 3 3.2 4.5 3.6 5.3 6.8 10.8 9.6 16.5.6 1.2 1.2 2.5 1.7 3.7.7 1.6.7 1.7.1.2.4.8.7 1.7 1 2.5 1 2.6 1.9 5.2 2.8 7.8 2 6.3 3.4 12.7 4.5 19.2.8 4.6-.2-3 .2 1.8.2 2 .4 3.9.5 5.9.3 3.5.4 7 .4 10.6.4 18.9 30.4 18.9 30.3-.4zM176.7 2581.6c-12.6 0-25.7-.1-39-.3-8.3-.1-14.9-6.9-14.8-15.2.1-8.2 6.8-14.8 15-14.8h.2c13.1.2 26.1.3 38.5.3 28.8 0 48.9-.5 60.7-1 8.2-.3 15.2 6.1 15.6 14.4.3 8.3-6.1 15.2-14.4 15.6-12 .5-32.6 1-61.8 1zM37.9 2578h-.8c-33.6-1.7-67.3-4-100.4-6.7-8.3-.7-14.4-8-13.7-16.2.7-8.3 8-14.4 16.2-13.7 32.7 2.8 66.1 5 99.4 6.7 8.3.4 14.6 7.5 14.2 15.7-.4 8-7 14.2-14.9 14.2zm299.6-8.3c-7.3 0-13.7-5.4-14.8-12.8-1.2-8.2 4.5-15.8 12.7-17 27.8-4.1 61-9.4 98.6-15.8 8.2-1.4 15.9 4.1 17.3 12.3 1.4 8.2-4.1 15.9-12.3 17.3-37.8 6.4-71.2 11.8-99.3 15.9-.7 0-1.5.1-2.2.1zm-499-8.6c-.6 0-1.2 0-1.8-.1-34.1-4.1-67.6-8.9-99.7-14.2-8.2-1.3-13.7-9.1-12.4-17.2 1.3-8.1 9.1-13.7 17.2-12.4 31.7 5.2 64.8 9.9 98.4 14 8.2 1 14.1 8.5 13.1 16.7-.9 7.6-7.3 13.2-14.8 13.2zm696.6-24.6c-7.1 0-13.4-5.1-14.7-12.3-1.5-8.2 3.9-16 12.1-17.4 31.4-5.7 64.5-11.8 98.4-18.2 8.1-1.5 16 3.8 17.5 12 1.5 8.1-3.8 16-12 17.5-34 6.4-67.2 12.5-98.6 18.2-.9.1-1.8.2-2.7.2zm-894-8.3c-1.1 0-2.1-.1-3.2-.3-34.2-7.4-67.1-15.7-98-24.6-8-2.3-12.6-10.6-10.3-18.6 2.3-8 10.6-12.6 18.6-10.3 30.2 8.7 62.6 16.8 96.1 24.1 8.1 1.8 13.2 9.8 11.5 17.9-1.6 7-7.8 11.8-14.7 11.8zM732 2499.4c-7 0-13.3-5-14.7-12.1-1.6-8.1 3.7-16 11.8-17.6 9.9-1.9 18.3-3.6 23.8-4.7.7-.1 1.9-.6 3.1-1 3.1-1 7-2.3 11.6-2.5 20.6-.9 41.7-1.9 62.7-3.1 8.3-.5 15.3 5.9 15.8 14.1.5 8.3-5.9 15.3-14.1 15.8-21.1 1.2-42.4 2.2-63.1 3.1-.5.1-2.2.6-3.3 1-2 .7-4.2 1.4-6.7 1.9l-24 4.8c-.9.2-1.9.3-2.9.3zm199-17.5c-7.8 0-14.4-6-14.9-13.9-.6-8.3 5.6-15.5 13.8-16.1 32.7-2.4 66.2-5.2 99.4-8.3 8.3-.8 15.5 5.3 16.3 13.6.8 8.2-5.3 15.5-13.6 16.3-33.5 3.1-67.1 5.9-100 8.3-.2 0-.6.1-1 .1zm-1481.9-9.5c-1.8 0-3.6-.3-5.4-1-33.5-12.8-64.8-26.9-92.8-41.7-7.3-3.9-10.1-13-6.2-20.3 3.9-7.3 13-10.1 20.3-6.2 27 14.3 57.1 27.8 89.5 40.2 7.7 3 11.6 11.6 8.6 19.4-2.3 6-8 9.6-14 9.6zm1681.2-8.8c-7.6 0-14.1-5.7-14.9-13.4-.9-8.2 5.1-15.6 13.3-16.5 33-3.6 66.3-7.5 99.1-11.5 8.2-1 15.7 4.8 16.7 13s-4.8 15.7-13 16.7c-33 4.1-66.5 8-99.6 11.6-.5.1-1.1.1-1.6.1zm198.6-24.8c-7.3 0-13.8-5.4-14.8-12.9-1.2-8.2 4.5-15.8 12.7-17 61.5-8.8 98.2-15.1 98.6-15.2 8.2-1.4 15.9 4.1 17.3 12.2 1.4 8.2-4.1 15.9-12.2 17.3-.4.1-37.4 6.5-99.5 15.3-.7.3-1.4.3-2.1.3z" style="stroke:#fff;stroke-width:15.5221653;stroke-linecap:round;stroke-linejoin:round;stroke-miterlimit:4;stroke-dasharray:none;stroke-opacity:1;paint-order:stroke markers fill" transform="matrix(-.32212 0 0 .32212 7.11 883.222)"/>
      <path d="M-705.7 2514.7c.6 17 6.9 33.4 19.5 45.1 8.1 7.5 18.2 13.2 27.6 18.8 18.2 10.9 37.2 20.5 56.6 29.1 44.3 19.8 90.4 35.1 137.2 48 103.8 28.5 210.6 45.4 317.4 57.6 92.7 10.7 185.9 17.4 279.2 20.4 58.2 1.8 115.3 2.2 173.1-5.7 107.1-14.6 213.5-36.4 318.8-60.5 24.4-5.6 48.8-11.4 73.1-17.7 23.3-6 48.2-17 72.5-11.8 15.9 3.4 27.6 11.8 39.5 22.2 13.3 11.7 27.8 22.1 43.3 30.8 30.4 17.2 63.9 27.7 98.6 31.8 21.4 2.5 43 1.4 64.5 1 32.1-.7 64.2-1.3 96.3-2 81-1.7 161.9-3.3 242.9-5 23.3-.5 46.6-1 69.9-1.4 9.8-.2 19.6-.8 28.9-4.2 28.9-10.4 47.4-37.2 48.2-67.8 1.3-55.7 0-111.5 0-167.2v-45c0-11.9-12.6-18-22.6-13-26.3 13.5-55.6 18.1-84.6 21.7-21 2.6-41.9 5.7-62.8 8.8-37.1 5.6-74.3 10.7-111.5 15.5-106.6 13.7-213.7 24.5-320.9 32-30.7 2.1-61.3 4-92 5.6-20.6 1.1-41.2 1.1-61.5 5.2-20.3 4.1-40.6 8.2-60.9 12.2-69.6 13.8-139.2 27.1-209 39.8-65.5 11.9-132.1 24.2-197.6 31.6-36.1 4.1-72.5 3.8-108.8 3.1-135.6-2.4-271.6-13-405.7-33-76.6-11.4-152.9-26-227.5-46.9-63.4-17.8-127-39.8-183.4-74.5-11.2-6.9-22.7-14.7-32.6-22.6-9.7-7.8-25.6-3.4-25.6 10.6-.1 29.3-.1 58.3-.1 87.4 0 19.3 30 19.3 30 0v-87.2c-8.5 3.5-17.1 7.1-25.6 10.6 50.5 40.4 111 66.5 171.8 87.1 72.9 24.7 148.4 41.5 224.1 54.7 143 25 288.4 38.1 433.5 42.8 39.8 1.3 80 2.6 119.8.5 58.4-3.1 116.9-14.6 174.4-24.5 74.7-12.9 149.1-26.9 223.5-41.4 27.5-5.4 55-10.8 82.4-16.3 8.3-1.7 16.7-3.4 25-5 21.6-4.4 44.3-3.6 66.2-4.8 199.2-10.7 396.3-36.1 593.7-63.7 28.1-3.9 55.1-10.3 80.5-23.3-7.5-4.3-15-8.6-22.6-13v182.5c0 9.8.2 19.7 0 29.5-.5 22.7-17.8 40.9-40.7 41.9-14.7.6-29.5.6-44.2.9-75.1 1.6-150.3 3.1-225.4 4.7l-173.1 3.6c-50.3 1-98.6-12.6-140-41.5-12.9-9-23.7-20.7-36.8-29.5-13.7-9.2-29.7-14.5-46-16.3-25.5-2.8-49.8 6.8-74.1 13.1-104 27.1-209.8 48.3-315.7 66.5-39.7 6.8-79.8 13.9-120 16.9-22.1 1.6-44.3 1.4-66.4 1.2-81.2-.7-162.5-5.3-243.4-12.2-103.7-8.9-207.3-22.2-309.2-43.6-91.3-19.1-185-43.5-267.1-89.1-18.4-10.2-44-21.1-44.9-45.2-.3-19.1-30.3-19.2-29.7.1z" style="stroke:#fff;stroke-width:15.5221653;stroke-linecap:round;stroke-linejoin:round;stroke-miterlimit:4;stroke-dasharray:none;stroke-opacity:1;paint-order:stroke markers fill" transform="matrix(-.32212 0 0 .32212 7.11 883.222)"/>
      <path d="M836.3 2450c-.7 0-1.5-.1-2.3-.2-8.2-1.2-13.8-8.9-12.6-17.1.3-1.7 6.7-43.4 26.1-99.7 2.7-7.8 11.2-12 19.1-9.3 7.8 2.7 12 11.2 9.3 19.1-18.4 53.5-24.7 94-24.8 94.4-1.1 7.4-7.5 12.8-14.8 12.8zm65.3-188.8c-2.4 0-4.8-.6-7.1-1.8-7.3-3.9-10-13-6.1-20.3 17.2-31.9 36.7-60.6 58-85.3 5.4-6.3 14.9-7 21.2-1.6 6.3 5.4 7 14.9 1.6 21.2-19.9 23-38.1 49.9-54.3 79.9-2.8 5-8 7.9-13.3 7.9zm131.1-148.2c-5 0-9.8-2.5-12.7-7-4.4-7-2.4-16.3 4.6-20.7 29.7-18.8 62.1-32.3 96.4-40.2 8.1-1.9 16.1 3.2 18 11.3 1.9 8.1-3.2 16.1-11.3 18-30.9 7.1-60.2 19.3-87 36.3-2.4 1.6-5.2 2.3-8 2.3zm189.9-56.1c-6.5 0-12.5-4.3-14.4-10.8-2.3-8 2.3-16.3 10.2-18.6 16.3-4.8 32.2-10.9 47.1-18.2 14.6-7.1 27.6-14.6 38.7-22.3 6.8-4.7 16.2-3 20.9 3.8 4.7 6.8 3 16.2-3.8 20.9-12.3 8.5-26.6 16.8-42.5 24.6-16.5 8.1-33.9 14.8-51.9 20-1.5.4-2.9.6-4.3.6zM127.6 2005.1c0 .8-.6 6 0 2.9-.3 1.8-.7 3.5-1.3 5.3-.3.9-.6 1.7-.9 2.5.2-.7 1.3-2.3-.1.1-1 1.7-1.9 3.4-3 5.1-1.2 1.9 1.5-1.6-.1.1-.6.6-1.2 1.3-1.8 1.9-.6.6-1.2 1.2-1.9 1.8-.3.3-2.4 2-1 .9 1.3-1-.4.3-.6.4-.8.5-1.5 1-2.2 1.4-.8.4-1.6.8-2.3 1.3-3.2 1.9 2.3-.5-1.3.6-1.7.5-3.4 1-5.2 1.4-.6.1-2.9.4-.1.1-.9.1-1.9.2-2.8.2-1.6.1-3.3 0-4.9-.1-2.4-.2 2.2.5-.1 0-1.1-.2-2.2-.5-3.3-.8-.7-.2-5.4-2.1-2.7-.8-1.6-.7-3.1-1.6-4.6-2.5-.7-.5-1.5-1-2.2-1.5.6.4 1.9 1.8 0-.1-1.4-1.4-2.8-2.7-4.1-4.2-1.5-1.7 1.2 1.8-.1-.1-.5-.7-1-1.5-1.4-2.2-.5-.8-.9-1.5-1.3-2.3-.2-.4-1.4-2.9-.6-1.2.5 1.2-.8-2.5-1-3.2-.2-.9-.4-1.8-.6-2.6-.9-4 0 2.7-.2-1.5-.1-1.9-.1-3.7 0-5.6 0-.6.4-2.9 0-.1.2-.9.3-1.8.5-2.7.4-1.5.9-3 1.4-4.5.7-2.2-1 2 0-.1.5-1 1-2 1.5-2.9.4-.6 3.3-4.6 1.4-2.3 1.1-1.3 2.3-2.6 3.6-3.8.6-.6 1.3-1.2 2-1.7-.5.4-2.2 1.4.1 0 1.7-1 3.4-2 5.1-2.9 2-1.1-2.1.7.1 0 .8-.3 1.7-.6 2.5-.8.9-.3 1.7-.5 2.6-.7.4-.1 3.2-.6 1.4-.3-1.9.3 1 0 1.4-.1.7 0 1.4-.1 2.1-.1.9 0 1.9.1 2.8.1 4.1.2-2.5-.7 1.5.2 2 .5 3.9 1 5.8 1.7 2.2.7-2-1 .1 0 1 .5 2 1 2.9 1.5.8.4 1.5.9 2.2 1.4 2.3 1.4-.6-.7.6.4 1.5 1.3 2.8 2.7 4.2 4.1 1.9 2 .5.6.1 0 .8 1.1 1.5 2.2 2.2 3.3.4.8.8 1.6 1.3 2.3 1.4 2.4-.2-.9.3.7.7 1.9 1.2 3.8 1.7 5.8.1.6.4 2.9.1.1.2 1.3.2 2.7.2 4.1.1 7.8 6.8 15.4 15 15 8-.4 15.1-6.6 15-15-.4-23.8-15-44.4-37.2-52.7-21-7.8-46.4-1.1-60.9 16-15.3 18.1-18.2 44.2-6.1 64.9 12.2 20.9 36.4 30.9 59.9 26.5 25.9-4.8 43.9-29 44.4-54.7.1-7.8-7-15.4-15-15-8.3.4-14.9 6.6-15.1 15zM255.3 1933.2c0 .8-.6 6 0 2.9-.3 1.8-.7 3.5-1.3 5.3-.3.9-.6 1.7-.9 2.5.2-.7 1.3-2.3-.1.1-1 1.7-1.9 3.4-3 5.1-1.2 1.9 1.5-1.6-.1.1-.6.6-1.2 1.3-1.8 1.9-.6.6-1.2 1.2-1.9 1.8-.3.3-2.4 2-1 .9 1.3-1-.4.3-.6.4-.8.5-1.5 1-2.2 1.4-.8.4-1.6.8-2.3 1.3-3.2 1.9 2.3-.5-1.3.6-1.7.5-3.4 1-5.2 1.4-.6.1-2.9.4-.1.1-.9.1-1.9.2-2.8.2-1.6.1-3.3 0-4.9-.1-2.4-.2 2.2.5-.1 0-1.1-.2-2.2-.5-3.3-.8-.7-.2-5.4-2.1-2.7-.8-1.6-.7-3.1-1.6-4.6-2.5-.7-.5-1.5-1-2.2-1.5.6.4 1.9 1.8 0-.1-1.4-1.4-2.8-2.7-4.1-4.2-1.5-1.7 1.2 1.8-.1-.1-.5-.7-1-1.5-1.4-2.2-.5-.8-.9-1.5-1.3-2.3-.2-.4-1.4-2.9-.6-1.2.5 1.2-.8-2.5-1-3.2-.2-.9-.4-1.8-.6-2.6-.9-4 0 2.7-.2-1.5-.1-1.9-.1-3.7 0-5.6 0-.6.4-2.9 0-.1.2-.9.3-1.8.5-2.7.4-1.5.9-3 1.4-4.5.7-2.2-1 2 0-.1.5-1 1-2 1.5-2.9.4-.6 3.3-4.6 1.4-2.3 1.1-1.3 2.3-2.6 3.6-3.8.6-.6 1.3-1.2 2-1.7-.5.4-2.2 1.4.1 0 1.7-1 3.4-2 5.1-2.9 2-1.1-2.1.7.1 0 .8-.3 1.7-.6 2.5-.8.9-.3 1.7-.5 2.6-.7.4-.1 3.2-.6 1.4-.3-1.9.3 1 0 1.4-.1.7 0 1.4-.1 2.1-.1.9 0 1.9.1 2.8.1 4.1.2-2.5-.7 1.5.2 2 .5 3.9 1 5.8 1.7 2.2.7-2-1 .1 0 1 .5 2 1 2.9 1.5.8.4 1.5.9 2.2 1.4 2.3 1.4-.6-.7.6.4 1.5 1.3 2.8 2.7 4.2 4.1 1.9 2 .5.6.1 0 .8 1.1 1.5 2.2 2.2 3.3.4.8.8 1.6 1.3 2.3 1.4 2.4-.2-.9.3.7.7 1.9 1.2 3.8 1.7 5.8.1.6.4 2.9.1.1.2 1.3.2 2.7.2 4.1.1 7.8 6.8 15.4 15 15 8-.4 15.1-6.6 15-15-.4-23.8-15-44.4-37.2-52.7-21-7.8-46.4-1.1-60.9 16-15.3 18.1-18.2 44.2-6.1 64.9 12.2 20.9 36.4 30.9 59.9 26.5 25.9-4.8 43.9-29 44.4-54.7.1-7.8-7-15.4-15-15-8.3.3-14.9 6.6-15.1 15zM382.4 1851.3c0 .8-.6 6 0 2.9-.3 1.8-.7 3.5-1.3 5.3-.3.9-.6 1.7-.9 2.5.2-.7 1.3-2.3-.1.1-1 1.7-1.9 3.4-3 5.1-1.2 1.9 1.5-1.6-.1.1-.6.6-1.2 1.3-1.8 1.9-.6.6-1.2 1.2-1.9 1.8-.3.3-2.4 2-1 .9 1.3-1-.4.3-.6.4-.8.5-1.5 1-2.2 1.4-.8.4-1.6.8-2.3 1.3-3.2 1.9 2.3-.5-1.3.6-1.7.5-3.4 1-5.2 1.4-.6.1-2.9.4-.1.1-.9.1-1.9.2-2.8.2-1.6.1-3.3 0-4.9-.1-2.4-.2 2.2.5-.1 0-1.1-.2-2.2-.5-3.3-.8-.7-.2-5.4-2.1-2.7-.8-1.6-.7-3.1-1.6-4.6-2.5-.7-.5-1.5-1-2.2-1.5.6.4 1.9 1.8 0-.1-1.4-1.4-2.8-2.7-4.1-4.2-1.5-1.7 1.2 1.8-.1-.1-.5-.7-1-1.5-1.4-2.2-.5-.8-.9-1.5-1.3-2.3-.2-.4-1.4-2.9-.6-1.2.5 1.2-.8-2.5-1-3.2-.2-.9-.4-1.8-.6-2.6-.9-4 0 2.7-.2-1.5-.1-1.9-.1-3.7 0-5.6 0-.6.4-2.9 0-.1.2-.9.3-1.8.5-2.7.4-1.5.9-3 1.4-4.5.7-2.2-1 2 0-.1.5-1 1-2 1.5-2.9.4-.6 3.3-4.6 1.4-2.3 1.1-1.3 2.3-2.6 3.6-3.8.6-.6 1.3-1.2 2-1.7-.5.4-2.2 1.4.1 0 1.7-1 3.4-2 5.1-2.9 2-1.1-2.1.7.1 0 .8-.3 1.7-.6 2.5-.8.9-.3 1.7-.5 2.6-.7.4-.1 3.2-.6 1.4-.3-1.9.3 1 0 1.4-.1.7 0 1.4-.1 2.1-.1.9 0 1.9.1 2.8.1 4.1.2-2.5-.7 1.5.2 2 .5 3.9 1 5.8 1.7 2.2.7-2-1 .1 0 1 .5 2 1 2.9 1.5.8.4 1.5.9 2.2 1.4 2.3 1.4-.6-.7.6.4 1.5 1.3 2.8 2.7 4.2 4.1 1.9 2 .5.6.1 0 .8 1.1 1.5 2.2 2.2 3.3.4.8.8 1.6 1.3 2.3 1.4 2.4-.2-.9.3.7.7 1.9 1.2 3.8 1.7 5.8.1.6.4 2.9.1.1.2 1.4.2 2.7.2 4.1.1 7.8 6.8 15.4 15 15 8-.4 15.1-6.6 15-15-.4-23.8-15-44.4-37.2-52.7-21-7.8-46.4-1.1-60.9 16-15.3 18.1-18.2 44.2-6.1 64.9 12.2 20.9 36.4 30.9 59.9 26.5 25.9-4.8 43.9-29 44.4-54.7.1-7.8-7-15.4-15-15-8.3.4-14.9 6.6-15.1 15zM494 1745.3c0 .8-.6 6 0 2.9-.3 1.8-.7 3.5-1.3 5.3-.3.9-.6 1.7-.9 2.5.2-.7 1.3-2.3-.1.1-1 1.7-1.9 3.4-3 5.1-1.2 1.9 1.5-1.6-.1.1-.6.6-1.2 1.3-1.8 1.9-.6.6-1.2 1.2-1.9 1.8-.3.3-2.4 2-1 .9 1.3-1-.4.3-.6.4-.8.5-1.5 1-2.2 1.4-.8.4-1.6.8-2.3 1.3-3.2 1.9 2.3-.5-1.3.6-1.7.5-3.4 1-5.2 1.4-.6.1-2.9.4-.1.1-.9.1-1.9.2-2.8.2-1.6.1-3.3 0-4.9-.1-2.4-.2 2.2.5-.1 0-1.1-.2-2.2-.5-3.3-.8-.7-.2-5.4-2.1-2.7-.8-1.6-.7-3.1-1.6-4.6-2.5-.7-.5-1.5-1-2.2-1.5.6.4 1.9 1.8 0-.1-1.4-1.4-2.8-2.7-4.1-4.2-1.5-1.7 1.2 1.8-.1-.1-.5-.7-1-1.5-1.4-2.2-.5-.8-.9-1.5-1.3-2.3-.2-.4-1.4-2.9-.6-1.2.5 1.2-.8-2.5-1-3.2-.2-.9-.4-1.8-.6-2.6-.9-4 0 2.7-.2-1.5-.1-1.9-.1-3.7 0-5.6 0-.6.4-2.9 0-.1.2-.9.3-1.8.5-2.7.4-1.5.9-3 1.4-4.5.7-2.2-1 2 0-.1.5-1 1-2 1.5-2.9.4-.6 3.3-4.6 1.4-2.3 1.1-1.3 2.3-2.6 3.6-3.8.6-.6 1.3-1.2 2-1.7-.5.4-2.2 1.4.1 0 1.7-1 3.4-2 5.1-2.9 2-1.1-2.1.7.1 0 .8-.3 1.7-.6 2.5-.8.9-.3 1.7-.5 2.6-.7.4-.1 3.2-.6 1.4-.3-1.9.3 1 0 1.4-.1.7 0 1.4-.1 2.1-.1.9 0 1.9.1 2.8.1 4.1.2-2.5-.7 1.5.2 2 .5 3.9 1 5.8 1.7 2.2.7-2-1 .1 0 1 .5 2 1 2.9 1.5.8.4 1.5.9 2.2 1.4 2.3 1.4-.6-.7.6.4 1.5 1.3 2.8 2.7 4.2 4.1 1.9 2 .5.6.1 0 .8 1.1 1.5 2.2 2.2 3.3.4.8.8 1.6 1.3 2.3 1.4 2.4-.2-.9.3.7.7 1.9 1.2 3.8 1.7 5.8.1.6.4 2.9.1.1.2 1.3.2 2.7.2 4.1.1 7.8 6.8 15.4 15 15 8-.4 15.1-6.6 15-15-.4-23.8-15-44.4-37.2-52.7-21-7.8-46.4-1.1-60.9 16-15.3 18.1-18.2 44.2-6.1 64.9 12.2 20.9 36.4 30.9 59.9 26.5 25.9-4.8 43.9-29 44.4-54.7.1-7.8-7-15.4-15-15-8.3.4-14.9 6.6-15.1 15zM560.4 1613.9c0 .8-.6 6 0 2.9-.3 1.8-.7 3.5-1.3 5.3-.3.9-.6 1.7-.9 2.5.2-.7 1.3-2.3-.1.1-1 1.7-1.9 3.4-3 5.1-1.2 1.9 1.5-1.6-.1.1-.6.6-1.2 1.3-1.8 1.9-.6.6-1.2 1.2-1.9 1.8-.3.3-2.4 2-1 .9 1.3-1-.4.3-.6.4-.8.5-1.5 1-2.2 1.4-.8.4-1.6.8-2.3 1.3-3.2 1.9 2.3-.5-1.3.6-1.7.5-3.4 1-5.2 1.4-.6.1-2.9.4-.1.1-.9.1-1.9.2-2.8.2-1.6.1-3.3 0-4.9-.1-2.4-.2 2.2.5-.1 0-1.1-.2-2.2-.5-3.3-.8-.7-.2-5.4-2.1-2.7-.8-1.6-.7-3.1-1.6-4.6-2.5-.7-.5-1.5-1-2.2-1.5.6.4 1.9 1.8 0-.1-1.4-1.4-2.8-2.7-4.1-4.2-1.5-1.7 1.2 1.8-.1-.1-.5-.7-1-1.5-1.4-2.2-.5-.8-.9-1.5-1.3-2.3-.2-.4-1.4-2.9-.6-1.2.5 1.2-.8-2.5-1-3.2-.2-.9-.4-1.8-.6-2.6-.9-4 0 2.7-.2-1.5-.1-1.9-.1-3.7 0-5.6 0-.6.4-2.9 0-.1.2-.9.3-1.8.5-2.7.4-1.5.9-3 1.4-4.5.7-2.2-1 2 0-.1.5-1 1-2 1.5-2.9.4-.6 3.3-4.6 1.4-2.3 1.1-1.3 2.3-2.6 3.6-3.8.6-.6 1.3-1.2 2-1.7-.5.4-2.2 1.4.1 0 1.7-1 3.4-2 5.1-2.9 2-1.1-2.1.7.1 0 .8-.3 1.7-.6 2.5-.8.9-.3 1.7-.5 2.6-.7.4-.1 3.2-.6 1.4-.3-1.9.3 1 0 1.4-.1.7 0 1.4-.1 2.1-.1.9 0 1.9.1 2.8.1 4.1.2-2.5-.7 1.5.2 2 .5 3.9 1 5.8 1.7 2.2.7-2-1 .1 0 1 .5 2 1 2.9 1.5.8.4 1.5.9 2.2 1.4 2.3 1.4-.6-.7.6.4 1.5 1.3 2.8 2.7 4.2 4.1 1.9 2 .5.6.1 0 .8 1.1 1.5 2.2 2.2 3.3.4.8.8 1.6 1.3 2.3 1.4 2.4-.2-.9.3.7.7 1.9 1.2 3.8 1.7 5.8.1.6.4 2.9.1.1.1 1.3.1 2.7.2 4.1.1 7.8 6.8 15.4 15 15 8-.4 15.1-6.6 15-15-.4-23.8-15-44.4-37.2-52.7-21-7.8-46.4-1.1-60.9 16-15.3 18.1-18.2 44.2-6.1 64.9 12.2 20.9 36.4 30.9 59.9 26.5 25.9-4.8 43.9-29 44.4-54.7.1-7.8-7-15.4-15-15-8.4.4-15 6.6-15.1 15zM601.3 1454c0 .8-.6 6 0 2.9-.3 1.8-.7 3.5-1.3 5.3-.3.9-.6 1.7-.9 2.5.2-.7 1.3-2.3-.1.1-1 1.7-1.9 3.4-3 5.1-1.2 1.9 1.5-1.6-.1.1-.6.6-1.2 1.3-1.8 1.9-.6.6-1.2 1.2-1.9 1.8-.3.3-2.4 2-1 .9 1.3-1-.4.3-.6.4-.8.5-1.5 1-2.2 1.4-.8.4-1.6.8-2.3 1.3-3.2 1.9 2.3-.5-1.3.6-1.7.5-3.4 1-5.2 1.4-.6.1-2.9.4-.1.1-.9.1-1.9.2-2.8.2-1.6.1-3.3 0-4.9-.1-2.4-.2 2.2.5-.1 0-1.1-.2-2.2-.5-3.3-.8-.7-.2-5.4-2.1-2.7-.8-1.6-.7-3.1-1.6-4.6-2.5-.7-.5-1.5-1-2.2-1.5.6.4 1.9 1.8 0-.1-1.4-1.4-2.8-2.7-4.1-4.2-1.5-1.7 1.2 1.8-.1-.1-.5-.7-1-1.5-1.4-2.2-.5-.8-.9-1.5-1.3-2.3-.2-.4-1.4-2.9-.6-1.2.5 1.2-.8-2.5-1-3.2-.2-.9-.4-1.8-.6-2.6-.9-4 0 2.7-.2-1.5-.1-1.9-.1-3.7 0-5.6 0-.6.4-2.9 0-.1.2-.9.3-1.8.5-2.7.4-1.5.9-3 1.4-4.5.7-2.2-1 2 0-.1.5-1 1-2 1.5-2.9.4-.6 3.3-4.6 1.4-2.3 1.1-1.3 2.3-2.6 3.6-3.8.6-.6 1.3-1.2 2-1.7-.5.4-2.2 1.4.1 0 1.7-1 3.4-2 5.1-2.9 2-1.1-2.1.7.1 0 .8-.3 1.7-.6 2.5-.8.9-.3 1.7-.5 2.6-.7.4-.1 3.2-.6 1.4-.3-1.9.3 1 0 1.4-.1.7 0 1.4-.1 2.1-.1.9 0 1.9.1 2.8.1 4.1.2-2.5-.7 1.5.2 2 .5 3.9 1 5.8 1.7 2.2.7-2-1 .1 0 1 .5 2 1 2.9 1.5.8.4 1.5.9 2.2 1.4 2.3 1.4-.6-.7.6.4 1.5 1.3 2.8 2.7 4.2 4.1 1.9 2 .5.6.1 0 .8 1.1 1.5 2.2 2.2 3.3.4.8.8 1.6 1.3 2.3 1.4 2.4-.2-.9.3.7.7 1.9 1.2 3.8 1.7 5.8.1.6.4 2.9.1.1.1 1.3.2 2.7.2 4.1.1 7.8 6.8 15.4 15 15 8-.4 15.1-6.6 15-15-.4-23.8-15-44.4-37.2-52.7-21-7.8-46.4-1.1-60.9 16-15.3 18.1-18.2 44.2-6.1 64.9 12.2 20.9 36.4 30.9 59.9 26.5 25.9-4.8 43.9-29 44.4-54.7.1-7.8-7-15.4-15-15-8.4.3-15 6.5-15.1 15zM29.2 2282.5c-1.6 0-3.1-.2-4.7-.8-7.9-2.6-12.1-11.1-9.6-18.9.3-.9.6-1.8.9-2.6 2.7-7.8 11.2-12 19.1-9.3 7.8 2.7 12 11.2 9.3 19.1-.3.8-.5 1.5-.8 2.3-2.1 6.2-7.9 10.2-14.2 10.2zm49.6-89.2c-3.2 0-6.4-1-9.1-3.1-6.6-5-7.8-14.5-2.8-21 18.5-24.2 41.8-49.5 69.2-75.4 6-5.7 15.5-5.4 21.2.6 5.7 6 5.4 15.5-.6 21.2-26.2 24.8-48.4 49-66 71.9-2.9 3.8-7.4 5.8-11.9 5.8zm143.5-138.8c-4.4 0-8.8-1.9-11.8-5.7-5.1-6.5-4.1-15.9 2.4-21.1 23.9-19 50.3-38.8 80.6-60.5 6.7-4.8 16.1-3.3 20.9 3.4 4.8 6.7 3.3 16.1-3.4 20.9-29.9 21.5-55.9 41-79.4 59.6-2.8 2.3-6.1 3.4-9.3 3.4zm162-117.3c-4.8 0-9.5-2.3-12.4-6.5-4.7-6.8-2.9-16.2 3.9-20.9 8.8-6 17.4-11.9 26-17.7 19.8-13.5 38.6-26.3 56.5-38.8 6.8-4.7 16.2-3 20.9 3.8 4.7 6.8 3 16.1-3.8 20.9-18 12.5-36.8 25.3-56.7 38.9-8.5 5.8-17.2 11.7-25.9 17.7-2.6 1.7-5.5 2.6-8.5 2.6zm157.2-122.5c-3.3 0-6.7-1.1-9.5-3.4-6.4-5.2-7.4-14.7-2.2-21.1 18-22.1 35.7-49.5 52.9-81.4 3.9-7.3 13-10 20.3-6.1 7.3 3.9 10 13 6.1 20.3-18 33.6-36.9 62.6-56 86.2-2.9 3.6-7.2 5.5-11.6 5.5zm96.7-174.6c-1.9 0-3.8-.4-5.7-1.1-7.7-3.1-11.4-11.9-8.2-19.6 11.7-28.8 23.2-60.1 34.1-93.1 2.6-7.9 11.1-12.1 18.9-9.6 7.9 2.6 12.1 11.1 9.6 18.9-11.1 33.6-22.8 65.6-34.8 95-2.4 6-8 9.5-13.9 9.5zm63.1-190c-1.3 0-2.6-.2-3.9-.5-8-2.2-12.7-10.4-10.6-18.4 15.3-56.6 23.2-96.2 23.3-96.6 1.6-8.1 9.5-13.4 17.6-11.8 8.1 1.6 13.4 9.5 11.8 17.6-.3 1.6-8.2 40.9-23.8 98.6-1.7 6.7-7.8 11.1-14.4 11.1zM1303.3 1576.9c-15.7.9-31.4 1.5-47.2 2-39.2 1.4-78.4 2.2-117.6 2.3-50.1.2-100.3-.6-150.4-3.1-25.4-1.3-50.8-2.9-76.2-5.3-12.2-1.1-24.4-2.4-36.6-3.9-2.7-.3-5.4-.7-8.1-1-2.7-.3.6.1 1 .1-.8-.1-1.7-.2-2.5-.3l-4.5-.6c-5.8-.8-11.7-1.7-17.5-2.7-20.2-3.3-40.3-7.3-60-13-8.5-2.4-16.9-5.2-25.2-8.4-.9-.3-1.7-.7-2.6-1-.4-.2-.9-.4-1.3-.5-2.5-1 3.1 1.4 1.4.6-1.8-.8-3.7-1.6-5.5-2.5-3.3-1.6-6.6-3.2-9.8-5-2.9-1.6-5.6-3.4-8.3-5.2-6.7-4.6-16.7-1.2-20.5 5.4-4.4 7.5-1.3 15.9 5.4 20.5 13.4 9.3 29 15.6 44.4 20.7 18.7 6.3 38 10.7 57.4 14.4 48.6 9.2 98.1 13.7 147.5 16.6 51 3.1 102.1 4.2 153.2 4.3 41.5.1 83-.6 124.5-2 19.4-.6 39-1 58.4-2.4h.8c7.8-.4 15.4-6.6 15-15-.5-7.8-6.8-15.5-15.2-15z" style="stroke:#fff;stroke-width:15.5221653;stroke-linecap:round;stroke-linejoin:round;stroke-miterlimit:4;stroke-dasharray:none;stroke-opacity:1;paint-order:stroke markers fill" transform="matrix(-.32212 0 0 .32212 7.11 883.222)"/>
    </g>
    <g style="opacity:1;stroke:none;stroke-width:15.5221653;stroke-linecap:round;stroke-linejoin:round;stroke-miterlimit:4;stroke-dasharray:none;stroke-opacity:1;paint-order:stroke markers fill">
      <path style="stroke:none;stroke-width:15.5221653;stroke-linecap:round;stroke-linejoin:round;stroke-miterlimit:4;stroke-dasharray:none;stroke-opacity:1;paint-order:stroke markers fill" d="M1303.3 1596.2c7.8 0 15.4-6.9 15-15-.4-8.1-6.6-15-15-15-7.8 0-15.4 6.9-15 15 .4 8.1 6.6 15 15 15z" transform="matrix(-.32212 0 0 .32212 7.11 883.222)"/>
      <path style="stroke:none;stroke-width:15.5221653;stroke-linecap:round;stroke-linejoin:round;stroke-miterlimit:4;stroke-dasharray:none;stroke-opacity:1;paint-order:stroke markers fill" d="M-20.4 2115.3c-.1 3.8.1-3.8 0 0-.1.8 1.5-3.3-.3.2-1.6 3.1 1.6-1.5 0 .2-1.3 1.3-2.5 2.6-3.8 3.8-3 2.8 1.6-.9-1.4 1.1-1.4.9-2.8 1.9-4.2 2.8-3.9 2.4-7.9 4.4-12 6.4-18.2 8.6-43.6 15.7-65.6 21.2-62.6 15.6-127 25-191 32.2-61 6.9-121.9 10.1-183.2 11.9-57.9 1.7-107.1 32.5-131.8 85.1-14.2 30.3-22.7 65.6-22.3 99.3.1 5.1 2.8 10.5 7.4 13 68.1 35.3 141.9 59 216 77.8 82.2 20.8 165.9 35.3 249.9 46.6 128.2 17.2 259 28.9 388.5 27 46.1-.7 91.9-8.1 137.3-15.3 70.9-11.3 141.4-24.3 211.9-37.7 55.3-10.5 110.6-21.3 165.8-32.4 6.3-1.3 12.6-2.6 18.9-3.8 8.9-1.8 18.3-1.5 27.4-1.9 16.1-.8 32.1-1.6 48.2-2.5 57.4-3.3 114.7-7.6 171.9-12.7 140-12.7 280.2-29.5 418.7-53.8 2.1-.4 4.2-.7 6.2-1.1 5.1-.9 9-5.8 10.5-10.5 17.4-56.2 24.3-117.2 13.2-175.1-11.3-58.8-27.6-116.9-43.9-174.5-16.8-59.4-34.5-118.5-53.9-177.1-5.8-17.4-11.5-35-18.9-51.9-.8-1.9-1.6-3.8-2.6-5.5-1-1.8-5.4-8-2.6-3.6-.6-.9-1.4-3.5-.4-.3-.4-1.3-.9-2.5-1.2-3.9-.7-2.6-1.3-5.3-1.7-8-1.2-7.2-1.7-15.2-2.2-22.9-1.5-27.8.7-55.7-1.6-83.5-2.3-28.3-5.3-56.5-8.3-84.7-1.5 3.5-2.9 7.1-4.4 10.6 6.2-7.2 7.7-16.3 9-25.4 2-14.1 2.8-28.3 3.5-42.4.7-15.1 1-30.1 1.1-45.2.2-14 1.8-29.3-3.1-42.7-6.3-17-19-30.5-33-41.6-15.5-12.3-31.6-21.8-52.2-18.5-8.3 1.3-16.1 4.9-24.4 6.5-8.1 1.5-14.2 2.1-24 2.8-65 5-130.8 2.6-195.9 2.4-63.151-9.978-109.297-16.564-187.256-30.488-16.132-4.398-19.544-2.312-27.244-7.112-3.3-2-6.4-4.2-9.6-6.4-3.6-2.5-.2 0-1.5-1.1-1.2-1-2.4-2-3.5-3-3.2-2.8-5.9-5.9-8.9-9-2.5-2.6 1.9 3.2-.4-.7-10-16.5-36-1.4-25.9 15.1 12.2 20.2 37 33.7 57.7 42.9 71 31.3 149.7 29.5 225.6 29.7 41.3.1 82.7.4 124-.3 26.7-.5 53.7-1.1 80.1-5.3 9.4-1.5 19.3-6.5 28.5-7 16.6-.9 36.6 19.3 45.1 32.1 9 13.7 6.1 31.2 5.8 46.8-.2 17.7-.7 35.5-1.7 53.2-.7 12.2-2.8 23.4-4.5 35.2-.5 3.7 1-2.7 0 0 .4-1 2.9-6.8-.8 1.1-1.3 2.7-2 5.1-2 8.1 0 2.9.6 6 .9 8.9 2.6 25.3 5.3 50.7 7.4 76 1.6 19.4.5 38.9.7 58.4.2 14.5.7 29.1 2.4 43.6 1.3 10.6 2.5 22.4 8.6 31.5 4.6 6.9 1.8 2.9 1.1 1.4.2.5.6.8.8 1.3.6 1.7 1.6 3.4 2.4 5.1.9 1.9-1.4-3.6-.1-.2.5 1.3 1 2.6 1.6 3.9 1.2 3.1 2.4 6.3 3.6 9.5 6.6 18.1 12.6 36.3 18.5 54.6 16.9 52.3 32.6 105 47.5 157.9 14.4 51.1 28.5 102.4 39.6 154.4 2.1 9.7 4 19.4 5.6 29.1.3 1.7.6 3.3.8 5 .1.8 1 7.3.5 3 .4 3.3.8 6.6 1.1 10 2.5 35.3-3.9 72.5-12 106.8-1.7 7.4-3.6 14.8-5.8 22.1l10.5-10.5c-113.5 20.6-228.4 34.7-343 46.6-54.5 5.7-109 10.5-163.7 14.6-28.7 2.1-57.4 4-86.2 5.6-26 1.5-53.4.2-79 5.1-43.8 8.5-87.4 17.5-131.2 26-70.6 13.7-141.3 27-212.2 39.1-53.7 9.2-106.3 19.5-160.1 22.4-44 2.4-88.4.5-132.4-1.5-71.1-3.1-142.2-8.8-212.9-16.7-82.5-9.2-164.8-21.7-246-39.1-76.1-16.4-152.3-36.7-224.1-67.2-15.9-6.8-31.5-14.1-46.8-22.1 2.5 4.3 5 8.6 7.4 13-.1-8.4.7-16.8 1.7-25 .4-3.5-.3 1.9.4-2.6.3-2.1.7-4.3 1.1-6.4.8-4.7 1.8-9.3 2.9-13.9 2.5-10.3 5.6-20.6 9.6-30.4 7.7-18.9 20.8-38.8 38-52.5 21.5-17 48.8-23.3 75.8-23.6 61.2-.5 122.3-5.4 183.1-12.4 65.7-7.6 131.7-17.1 195.8-33.2 25.5-6.4 51.5-13.8 75-25.8 15.1-7.7 31.9-19.6 32.3-38.2.3-19.2-29.7-19.1-30.2.2z" transform="matrix(-.32212 0 0 .32212 7.11 883.222)"/>
      <path style="stroke:none;stroke-width:15.5221653;stroke-linecap:round;stroke-linejoin:round;stroke-miterlimit:4;stroke-dasharray:none;stroke-opacity:1;paint-order:stroke markers fill" d="M29.2 2282.5c7.8 0 15.4-6.9 15-15-.4-8.1-6.6-15-15-15-7.8 0-15.4 6.9-15 15 .3 8.2 6.6 15 15 15z" transform="matrix(-.32212 0 0 .32212 7.11 883.222)"/>
      <path style="stroke:none;stroke-width:15.5221653;stroke-linecap:round;stroke-linejoin:round;stroke-miterlimit:4;stroke-dasharray:none;stroke-opacity:1;paint-order:stroke markers fill" d="M624.6 2468.8c-.1-25.5-6.2-50.5-18.6-72.8-12.3-22.1-30.2-40.1-50.2-55.2-43.1-32.5-96.8-50.5-148.8-62.9-100.3-23.9-205.2-29.4-308-27.9-23.3.3-46.6.9-69.8 2.6 4.8 3.7 9.6 7.3 14.5 11-1.7-7.3-3.3-14.6-5-21.9-3.9-17.3-7.9-34.6-11.8-51.9-7.2-31.9-15.5-63.7-21.7-95.7-.3-1.5-.6-3-.8-4.5-.1-.8-.7-4.7-.5-3 .2 1.7-.2-2.1-.3-2.9-.2-1.6-.3-3.2-.4-4.8-.3-5.4-.4-10.8-.1-16.2.2-2.6.4-5.2.7-7.7-.3 3-.1.8.2-.9.2-1.4.5-2.8.8-4.2 1-4.8 2.4-9.6 4-14.2.4-1.1.9-2.3 1.3-3.4.9-2.5-1.1 2.4.3-.7 1.1-2.4 2.2-4.7 3.4-7 2.3-4.3 4.9-8.6 7.7-12.6.7-1 1.4-2 2.2-3 .8-1.1 2.4-3.2.6-.8 1.6-2 3.2-4 4.8-5.9 3.5-4.1 7.3-8 11.2-11.8 4.1-3.9 8.3-7.7 12.6-11.3 2-1.7 4.1-3.3 6.1-5 2.6-2.1-.7.5 1.3-1 1.3-1 2.6-2 4-3 10-7.4 20.3-14.2 30.9-20.8 23.6-14.7 47.9-28.1 72.2-41.6 56.5-31.4 112.2-64 162.5-104.9 22.3-18.2 43-37.2 59.7-60.7 15.3-21.6 27.5-45.3 38.3-69.3 24.5-54.9 42.3-112.5 58.7-170.2 7.3-25.9 14.4-52 21.6-77.9 3.1-11.2 6.3-22.4 9.7-33.5.8-2.5 1.5-5 2.3-7.5.4-1.2.9-2.4 1.3-3.7 1.2-3.4-1 1.8.6-1.4 2.1-4.4 4.5-8.4 7.2-12.5 1.9-2.8-1.4 1.4.4-.5.8-.9 1.5-1.8 2.2-2.6 1.6-1.8 3.4-3.6 5.2-5.2.7-.7 1.5-1.3 2.2-1.9l1.5-1.2s-2.5 1.8-1.1.9c2-1.4 4-2.8 6-4.1 3.9-2.4 8.1-4.4 12.2-6.4-3.7 1.8-.3.2.6-.2l3.3-1.2c2.4-.8 4.8-1.6 7.3-2.3 4.7-1.3 9.4-2.4 14.2-3.2 1.2-.2 2.4-.4 3.7-.6l2.1-.3s-3.1.3-1.3.2c2.7-.2 5.3-.6 8-.8 10.2-.9 20.5-1 30.8-.6 10 .4 19.9 1.3 29.9 2.5 1.9.2 2.4.3 0 0 1.1.2 2.3.3 3.4.5 2.4.4 4.8.7 7.2 1.1 4.2.7 8.4 1.4 12.6 2.3 12.1 2.4 24.2 5.2 36.1 8.5l5.1 1.5c7.7 2.4 16.4-2.9 18.5-10.5 2.2-8.1-2.7-16-10.5-18.5-23.7-7.5-48.5-12-73-15.1-40.7-5.1-87.3-5.5-123.7 16-19.5 11.5-33.6 29.3-40.7 50.7-7.6 22.9-13.5 46.5-19.9 69.7-15.7 57.2-31.5 114.6-52.2 170.2-2.6 7-5.3 14-8.1 21-1.3 3.3-2.7 6.6-4.1 9.9 0 0-1 2.3-.4 1 .6-1.5-.6 1.4-.7 1.7-.8 1.8-1.6 3.7-2.4 5.5-5.6 12.6-11.5 25.1-18.1 37.3-6.2 11.5-12.8 22.7-20.3 33.4-1.7 2.4-3.4 4.8-5.2 7.2-.5.7-1 1.3-1.5 2 .1-.1 1.5-1.9.4-.6-1 1.3-2 2.6-3.1 3.8-3.6 4.4-7.4 8.7-11.5 12.7-23.2 23.5-49.1 43.1-75.9 61.6-26.8 18.5-54.7 35.4-83 51.5-47.7 27.2-98 51.7-141.7 85.2-18.9 14.5-36.4 30.7-49.6 50.7-12.4 18.7-19.4 40.3-21 62.7-2.2 30.5 7.5 60.9 14.2 90.3 5.8 25.4 11.6 50.8 17.3 76.2 3.2 14.3 5.5 29.3 9.8 43.3 0 .1 0 .2.1.3 1.4 6 8.2 11.5 14.5 11 61-4.4 122.7-3.7 183.6-.5 26.8 1.4 53.6 3.6 80.2 6.6 25.9 2.9 51.3 6.7 78.1 12.1 52 10.4 103.3 24.7 148.2 51.6 12.3 7.4 21.1 13.6 30.7 22.2 4.9 4.4 9.6 9.1 14 14 1.9 2.1 3.6 4.2 5.4 6.4 2.9 3.5-1.6-2.3 1 1.3 1.1 1.5 2.1 3 3.2 4.5 3.6 5.3 6.8 10.8 9.6 16.5.6 1.2 1.2 2.5 1.7 3.7.7 1.6.7 1.7.1.2.4.8.7 1.7 1 2.5 1 2.6 1.9 5.2 2.8 7.8 2 6.3 3.4 12.7 4.5 19.2.8 4.6-.2-3 .2 1.8.2 2 .4 3.9.5 5.9.3 3.5.4 7 .4 10.6.4 18.9 30.4 18.9 30.3-.4zM176.7 2581.6c-12.6 0-25.7-.1-39-.3-8.3-.1-14.9-6.9-14.8-15.2.1-8.2 6.8-14.8 15-14.8h.2c13.1.2 26.1.3 38.5.3 28.8 0 48.9-.5 60.7-1 8.2-.3 15.2 6.1 15.6 14.4.3 8.3-6.1 15.2-14.4 15.6-12 .5-32.6 1-61.8 1zM37.9 2578h-.8c-33.6-1.7-67.3-4-100.4-6.7-8.3-.7-14.4-8-13.7-16.2.7-8.3 8-14.4 16.2-13.7 32.7 2.8 66.1 5 99.4 6.7 8.3.4 14.6 7.5 14.2 15.7-.4 8-7 14.2-14.9 14.2zm299.6-8.3c-7.3 0-13.7-5.4-14.8-12.8-1.2-8.2 4.5-15.8 12.7-17 27.8-4.1 61-9.4 98.6-15.8 8.2-1.4 15.9 4.1 17.3 12.3 1.4 8.2-4.1 15.9-12.3 17.3-37.8 6.4-71.2 11.8-99.3 15.9-.7 0-1.5.1-2.2.1zm-499-8.6c-.6 0-1.2 0-1.8-.1-34.1-4.1-67.6-8.9-99.7-14.2-8.2-1.3-13.7-9.1-12.4-17.2 1.3-8.1 9.1-13.7 17.2-12.4 31.7 5.2 64.8 9.9 98.4 14 8.2 1 14.1 8.5 13.1 16.7-.9 7.6-7.3 13.2-14.8 13.2zm696.6-24.6c-7.1 0-13.4-5.1-14.7-12.3-1.5-8.2 3.9-16 12.1-17.4 31.4-5.7 64.5-11.8 98.4-18.2 8.1-1.5 16 3.8 17.5 12 1.5 8.1-3.8 16-12 17.5-34 6.4-67.2 12.5-98.6 18.2-.9.1-1.8.2-2.7.2zm-894-8.3c-1.1 0-2.1-.1-3.2-.3-34.2-7.4-67.1-15.7-98-24.6-8-2.3-12.6-10.6-10.3-18.6 2.3-8 10.6-12.6 18.6-10.3 30.2 8.7 62.6 16.8 96.1 24.1 8.1 1.8 13.2 9.8 11.5 17.9-1.6 7-7.8 11.8-14.7 11.8zM732 2499.4c-7 0-13.3-5-14.7-12.1-1.6-8.1 3.7-16 11.8-17.6 9.9-1.9 18.3-3.6 23.8-4.7.7-.1 1.9-.6 3.1-1 3.1-1 7-2.3 11.6-2.5 20.6-.9 41.7-1.9 62.7-3.1 8.3-.5 15.3 5.9 15.8 14.1.5 8.3-5.9 15.3-14.1 15.8-21.1 1.2-42.4 2.2-63.1 3.1-.5.1-2.2.6-3.3 1-2 .7-4.2 1.4-6.7 1.9l-24 4.8c-.9.2-1.9.3-2.9.3zm199-17.5c-7.8 0-14.4-6-14.9-13.9-.6-8.3 5.6-15.5 13.8-16.1 32.7-2.4 66.2-5.2 99.4-8.3 8.3-.8 15.5 5.3 16.3 13.6.8 8.2-5.3 15.5-13.6 16.3-33.5 3.1-67.1 5.9-100 8.3-.2 0-.6.1-1 .1zm-1481.9-9.5c-1.8 0-3.6-.3-5.4-1-33.5-12.8-64.8-26.9-92.8-41.7-7.3-3.9-10.1-13-6.2-20.3 3.9-7.3 13-10.1 20.3-6.2 27 14.3 57.1 27.8 89.5 40.2 7.7 3 11.6 11.6 8.6 19.4-2.3 6-8 9.6-14 9.6zm1681.2-8.8c-7.6 0-14.1-5.7-14.9-13.4-.9-8.2 5.1-15.6 13.3-16.5 33-3.6 66.3-7.5 99.1-11.5 8.2-1 15.7 4.8 16.7 13s-4.8 15.7-13 16.7c-33 4.1-66.5 8-99.6 11.6-.5.1-1.1.1-1.6.1zm198.6-24.8c-7.3 0-13.8-5.4-14.8-12.9-1.2-8.2 4.5-15.8 12.7-17 61.5-8.8 98.2-15.1 98.6-15.2 8.2-1.4 15.9 4.1 17.3 12.2 1.4 8.2-4.1 15.9-12.2 17.3-.4.1-37.4 6.5-99.5 15.3-.7.3-1.4.3-2.1.3z" transform="matrix(-.32212 0 0 .32212 7.11 883.222)"/>
      <path style="stroke:none;stroke-width:15.5221653;stroke-linecap:round;stroke-linejoin:round;stroke-miterlimit:4;stroke-dasharray:none;stroke-opacity:1;paint-order:stroke markers fill" d="M-705.7 2514.7c.6 17 6.9 33.4 19.5 45.1 8.1 7.5 18.2 13.2 27.6 18.8 18.2 10.9 37.2 20.5 56.6 29.1 44.3 19.8 90.4 35.1 137.2 48 103.8 28.5 210.6 45.4 317.4 57.6 92.7 10.7 185.9 17.4 279.2 20.4 58.2 1.8 115.3 2.2 173.1-5.7 107.1-14.6 213.5-36.4 318.8-60.5 24.4-5.6 48.8-11.4 73.1-17.7 23.3-6 48.2-17 72.5-11.8 15.9 3.4 27.6 11.8 39.5 22.2 13.3 11.7 27.8 22.1 43.3 30.8 30.4 17.2 63.9 27.7 98.6 31.8 21.4 2.5 43 1.4 64.5 1 32.1-.7 64.2-1.3 96.3-2 81-1.7 161.9-3.3 242.9-5 23.3-.5 46.6-1 69.9-1.4 9.8-.2 19.6-.8 28.9-4.2 28.9-10.4 47.4-37.2 48.2-67.8 1.3-55.7 0-111.5 0-167.2v-45c0-11.9-12.6-18-22.6-13-26.3 13.5-55.6 18.1-84.6 21.7-21 2.6-41.9 5.7-62.8 8.8-37.1 5.6-74.3 10.7-111.5 15.5-106.6 13.7-213.7 24.5-320.9 32-30.7 2.1-61.3 4-92 5.6-20.6 1.1-41.2 1.1-61.5 5.2-20.3 4.1-40.6 8.2-60.9 12.2-69.6 13.8-139.2 27.1-209 39.8-65.5 11.9-132.1 24.2-197.6 31.6-36.1 4.1-72.5 3.8-108.8 3.1-135.6-2.4-271.6-13-405.7-33-76.6-11.4-152.9-26-227.5-46.9-63.4-17.8-127-39.8-183.4-74.5-11.2-6.9-22.7-14.7-32.6-22.6-9.7-7.8-25.6-3.4-25.6 10.6-.1 29.3-.1 58.3-.1 87.4 0 19.3 30 19.3 30 0v-87.2c-8.5 3.5-17.1 7.1-25.6 10.6 50.5 40.4 111 66.5 171.8 87.1 72.9 24.7 148.4 41.5 224.1 54.7 143 25 288.4 38.1 433.5 42.8 39.8 1.3 80 2.6 119.8.5 58.4-3.1 116.9-14.6 174.4-24.5 74.7-12.9 149.1-26.9 223.5-41.4 27.5-5.4 55-10.8 82.4-16.3 8.3-1.7 16.7-3.4 25-5 21.6-4.4 44.3-3.6 66.2-4.8 199.2-10.7 396.3-36.1 593.7-63.7 28.1-3.9 55.1-10.3 80.5-23.3-7.5-4.3-15-8.6-22.6-13v182.5c0 9.8.2 19.7 0 29.5-.5 22.7-17.8 40.9-40.7 41.9-14.7.6-29.5.6-44.2.9-75.1 1.6-150.3 3.1-225.4 4.7l-173.1 3.6c-50.3 1-98.6-12.6-140-41.5-12.9-9-23.7-20.7-36.8-29.5-13.7-9.2-29.7-14.5-46-16.3-25.5-2.8-49.8 6.8-74.1 13.1-104 27.1-209.8 48.3-315.7 66.5-39.7 6.8-79.8 13.9-120 16.9-22.1 1.6-44.3 1.4-66.4 1.2-81.2-.7-162.5-5.3-243.4-12.2-103.7-8.9-207.3-22.2-309.2-43.6-91.3-19.1-185-43.5-267.1-89.1-18.4-10.2-44-21.1-44.9-45.2-.3-19.1-30.3-19.2-29.7.1z" transform="matrix(-.32212 0 0 .32212 7.11 883.222)"/>
      <path style="stroke:none;stroke-width:15.5221653;stroke-linecap:round;stroke-linejoin:round;stroke-miterlimit:4;stroke-dasharray:none;stroke-opacity:1;paint-order:stroke markers fill" d="M836.3 2450c-.7 0-1.5-.1-2.3-.2-8.2-1.2-13.8-8.9-12.6-17.1.3-1.7 6.7-43.4 26.1-99.7 2.7-7.8 11.2-12 19.1-9.3 7.8 2.7 12 11.2 9.3 19.1-18.4 53.5-24.7 94-24.8 94.4-1.1 7.4-7.5 12.8-14.8 12.8zm65.3-188.8c-2.4 0-4.8-.6-7.1-1.8-7.3-3.9-10-13-6.1-20.3 17.2-31.9 36.7-60.6 58-85.3 5.4-6.3 14.9-7 21.2-1.6 6.3 5.4 7 14.9 1.6 21.2-19.9 23-38.1 49.9-54.3 79.9-2.8 5-8 7.9-13.3 7.9zm131.1-148.2c-5 0-9.8-2.5-12.7-7-4.4-7-2.4-16.3 4.6-20.7 29.7-18.8 62.1-32.3 96.4-40.2 8.1-1.9 16.1 3.2 18 11.3 1.9 8.1-3.2 16.1-11.3 18-30.9 7.1-60.2 19.3-87 36.3-2.4 1.6-5.2 2.3-8 2.3zm189.9-56.1c-6.5 0-12.5-4.3-14.4-10.8-2.3-8 2.3-16.3 10.2-18.6 16.3-4.8 32.2-10.9 47.1-18.2 14.6-7.1 27.6-14.6 38.7-22.3 6.8-4.7 16.2-3 20.9 3.8 4.7 6.8 3 16.2-3.8 20.9-12.3 8.5-26.6 16.8-42.5 24.6-16.5 8.1-33.9 14.8-51.9 20-1.5.4-2.9.6-4.3.6zM127.6 2005.1c0 .8-.6 6 0 2.9-.3 1.8-.7 3.5-1.3 5.3-.3.9-.6 1.7-.9 2.5.2-.7 1.3-2.3-.1.1-1 1.7-1.9 3.4-3 5.1-1.2 1.9 1.5-1.6-.1.1-.6.6-1.2 1.3-1.8 1.9-.6.6-1.2 1.2-1.9 1.8-.3.3-2.4 2-1 .9 1.3-1-.4.3-.6.4-.8.5-1.5 1-2.2 1.4-.8.4-1.6.8-2.3 1.3-3.2 1.9 2.3-.5-1.3.6-1.7.5-3.4 1-5.2 1.4-.6.1-2.9.4-.1.1-.9.1-1.9.2-2.8.2-1.6.1-3.3 0-4.9-.1-2.4-.2 2.2.5-.1 0-1.1-.2-2.2-.5-3.3-.8-.7-.2-5.4-2.1-2.7-.8-1.6-.7-3.1-1.6-4.6-2.5-.7-.5-1.5-1-2.2-1.5.6.4 1.9 1.8 0-.1-1.4-1.4-2.8-2.7-4.1-4.2-1.5-1.7 1.2 1.8-.1-.1-.5-.7-1-1.5-1.4-2.2-.5-.8-.9-1.5-1.3-2.3-.2-.4-1.4-2.9-.6-1.2.5 1.2-.8-2.5-1-3.2-.2-.9-.4-1.8-.6-2.6-.9-4 0 2.7-.2-1.5-.1-1.9-.1-3.7 0-5.6 0-.6.4-2.9 0-.1.2-.9.3-1.8.5-2.7.4-1.5.9-3 1.4-4.5.7-2.2-1 2 0-.1.5-1 1-2 1.5-2.9.4-.6 3.3-4.6 1.4-2.3 1.1-1.3 2.3-2.6 3.6-3.8.6-.6 1.3-1.2 2-1.7-.5.4-2.2 1.4.1 0 1.7-1 3.4-2 5.1-2.9 2-1.1-2.1.7.1 0 .8-.3 1.7-.6 2.5-.8.9-.3 1.7-.5 2.6-.7.4-.1 3.2-.6 1.4-.3-1.9.3 1 0 1.4-.1.7 0 1.4-.1 2.1-.1.9 0 1.9.1 2.8.1 4.1.2-2.5-.7 1.5.2 2 .5 3.9 1 5.8 1.7 2.2.7-2-1 .1 0 1 .5 2 1 2.9 1.5.8.4 1.5.9 2.2 1.4 2.3 1.4-.6-.7.6.4 1.5 1.3 2.8 2.7 4.2 4.1 1.9 2 .5.6.1 0 .8 1.1 1.5 2.2 2.2 3.3.4.8.8 1.6 1.3 2.3 1.4 2.4-.2-.9.3.7.7 1.9 1.2 3.8 1.7 5.8.1.6.4 2.9.1.1.2 1.3.2 2.7.2 4.1.1 7.8 6.8 15.4 15 15 8-.4 15.1-6.6 15-15-.4-23.8-15-44.4-37.2-52.7-21-7.8-46.4-1.1-60.9 16-15.3 18.1-18.2 44.2-6.1 64.9 12.2 20.9 36.4 30.9 59.9 26.5 25.9-4.8 43.9-29 44.4-54.7.1-7.8-7-15.4-15-15-8.3.4-14.9 6.6-15.1 15zM255.3 1933.2c0 .8-.6 6 0 2.9-.3 1.8-.7 3.5-1.3 5.3-.3.9-.6 1.7-.9 2.5.2-.7 1.3-2.3-.1.1-1 1.7-1.9 3.4-3 5.1-1.2 1.9 1.5-1.6-.1.1-.6.6-1.2 1.3-1.8 1.9-.6.6-1.2 1.2-1.9 1.8-.3.3-2.4 2-1 .9 1.3-1-.4.3-.6.4-.8.5-1.5 1-2.2 1.4-.8.4-1.6.8-2.3 1.3-3.2 1.9 2.3-.5-1.3.6-1.7.5-3.4 1-5.2 1.4-.6.1-2.9.4-.1.1-.9.1-1.9.2-2.8.2-1.6.1-3.3 0-4.9-.1-2.4-.2 2.2.5-.1 0-1.1-.2-2.2-.5-3.3-.8-.7-.2-5.4-2.1-2.7-.8-1.6-.7-3.1-1.6-4.6-2.5-.7-.5-1.5-1-2.2-1.5.6.4 1.9 1.8 0-.1-1.4-1.4-2.8-2.7-4.1-4.2-1.5-1.7 1.2 1.8-.1-.1-.5-.7-1-1.5-1.4-2.2-.5-.8-.9-1.5-1.3-2.3-.2-.4-1.4-2.9-.6-1.2.5 1.2-.8-2.5-1-3.2-.2-.9-.4-1.8-.6-2.6-.9-4 0 2.7-.2-1.5-.1-1.9-.1-3.7 0-5.6 0-.6.4-2.9 0-.1.2-.9.3-1.8.5-2.7.4-1.5.9-3 1.4-4.5.7-2.2-1 2 0-.1.5-1 1-2 1.5-2.9.4-.6 3.3-4.6 1.4-2.3 1.1-1.3 2.3-2.6 3.6-3.8.6-.6 1.3-1.2 2-1.7-.5.4-2.2 1.4.1 0 1.7-1 3.4-2 5.1-2.9 2-1.1-2.1.7.1 0 .8-.3 1.7-.6 2.5-.8.9-.3 1.7-.5 2.6-.7.4-.1 3.2-.6 1.4-.3-1.9.3 1 0 1.4-.1.7 0 1.4-.1 2.1-.1.9 0 1.9.1 2.8.1 4.1.2-2.5-.7 1.5.2 2 .5 3.9 1 5.8 1.7 2.2.7-2-1 .1 0 1 .5 2 1 2.9 1.5.8.4 1.5.9 2.2 1.4 2.3 1.4-.6-.7.6.4 1.5 1.3 2.8 2.7 4.2 4.1 1.9 2 .5.6.1 0 .8 1.1 1.5 2.2 2.2 3.3.4.8.8 1.6 1.3 2.3 1.4 2.4-.2-.9.3.7.7 1.9 1.2 3.8 1.7 5.8.1.6.4 2.9.1.1.2 1.3.2 2.7.2 4.1.1 7.8 6.8 15.4 15 15 8-.4 15.1-6.6 15-15-.4-23.8-15-44.4-37.2-52.7-21-7.8-46.4-1.1-60.9 16-15.3 18.1-18.2 44.2-6.1 64.9 12.2 20.9 36.4 30.9 59.9 26.5 25.9-4.8 43.9-29 44.4-54.7.1-7.8-7-15.4-15-15-8.3.3-14.9 6.6-15.1 15zM382.4 1851.3c0 .8-.6 6 0 2.9-.3 1.8-.7 3.5-1.3 5.3-.3.9-.6 1.7-.9 2.5.2-.7 1.3-2.3-.1.1-1 1.7-1.9 3.4-3 5.1-1.2 1.9 1.5-1.6-.1.1-.6.6-1.2 1.3-1.8 1.9-.6.6-1.2 1.2-1.9 1.8-.3.3-2.4 2-1 .9 1.3-1-.4.3-.6.4-.8.5-1.5 1-2.2 1.4-.8.4-1.6.8-2.3 1.3-3.2 1.9 2.3-.5-1.3.6-1.7.5-3.4 1-5.2 1.4-.6.1-2.9.4-.1.1-.9.1-1.9.2-2.8.2-1.6.1-3.3 0-4.9-.1-2.4-.2 2.2.5-.1 0-1.1-.2-2.2-.5-3.3-.8-.7-.2-5.4-2.1-2.7-.8-1.6-.7-3.1-1.6-4.6-2.5-.7-.5-1.5-1-2.2-1.5.6.4 1.9 1.8 0-.1-1.4-1.4-2.8-2.7-4.1-4.2-1.5-1.7 1.2 1.8-.1-.1-.5-.7-1-1.5-1.4-2.2-.5-.8-.9-1.5-1.3-2.3-.2-.4-1.4-2.9-.6-1.2.5 1.2-.8-2.5-1-3.2-.2-.9-.4-1.8-.6-2.6-.9-4 0 2.7-.2-1.5-.1-1.9-.1-3.7 0-5.6 0-.6.4-2.9 0-.1.2-.9.3-1.8.5-2.7.4-1.5.9-3 1.4-4.5.7-2.2-1 2 0-.1.5-1 1-2 1.5-2.9.4-.6 3.3-4.6 1.4-2.3 1.1-1.3 2.3-2.6 3.6-3.8.6-.6 1.3-1.2 2-1.7-.5.4-2.2 1.4.1 0 1.7-1 3.4-2 5.1-2.9 2-1.1-2.1.7.1 0 .8-.3 1.7-.6 2.5-.8.9-.3 1.7-.5 2.6-.7.4-.1 3.2-.6 1.4-.3-1.9.3 1 0 1.4-.1.7 0 1.4-.1 2.1-.1.9 0 1.9.1 2.8.1 4.1.2-2.5-.7 1.5.2 2 .5 3.9 1 5.8 1.7 2.2.7-2-1 .1 0 1 .5 2 1 2.9 1.5.8.4 1.5.9 2.2 1.4 2.3 1.4-.6-.7.6.4 1.5 1.3 2.8 2.7 4.2 4.1 1.9 2 .5.6.1 0 .8 1.1 1.5 2.2 2.2 3.3.4.8.8 1.6 1.3 2.3 1.4 2.4-.2-.9.3.7.7 1.9 1.2 3.8 1.7 5.8.1.6.4 2.9.1.1.2 1.4.2 2.7.2 4.1.1 7.8 6.8 15.4 15 15 8-.4 15.1-6.6 15-15-.4-23.8-15-44.4-37.2-52.7-21-7.8-46.4-1.1-60.9 16-15.3 18.1-18.2 44.2-6.1 64.9 12.2 20.9 36.4 30.9 59.9 26.5 25.9-4.8 43.9-29 44.4-54.7.1-7.8-7-15.4-15-15-8.3.4-14.9 6.6-15.1 15zM494 1745.3c0 .8-.6 6 0 2.9-.3 1.8-.7 3.5-1.3 5.3-.3.9-.6 1.7-.9 2.5.2-.7 1.3-2.3-.1.1-1 1.7-1.9 3.4-3 5.1-1.2 1.9 1.5-1.6-.1.1-.6.6-1.2 1.3-1.8 1.9-.6.6-1.2 1.2-1.9 1.8-.3.3-2.4 2-1 .9 1.3-1-.4.3-.6.4-.8.5-1.5 1-2.2 1.4-.8.4-1.6.8-2.3 1.3-3.2 1.9 2.3-.5-1.3.6-1.7.5-3.4 1-5.2 1.4-.6.1-2.9.4-.1.1-.9.1-1.9.2-2.8.2-1.6.1-3.3 0-4.9-.1-2.4-.2 2.2.5-.1 0-1.1-.2-2.2-.5-3.3-.8-.7-.2-5.4-2.1-2.7-.8-1.6-.7-3.1-1.6-4.6-2.5-.7-.5-1.5-1-2.2-1.5.6.4 1.9 1.8 0-.1-1.4-1.4-2.8-2.7-4.1-4.2-1.5-1.7 1.2 1.8-.1-.1-.5-.7-1-1.5-1.4-2.2-.5-.8-.9-1.5-1.3-2.3-.2-.4-1.4-2.9-.6-1.2.5 1.2-.8-2.5-1-3.2-.2-.9-.4-1.8-.6-2.6-.9-4 0 2.7-.2-1.5-.1-1.9-.1-3.7 0-5.6 0-.6.4-2.9 0-.1.2-.9.3-1.8.5-2.7.4-1.5.9-3 1.4-4.5.7-2.2-1 2 0-.1.5-1 1-2 1.5-2.9.4-.6 3.3-4.6 1.4-2.3 1.1-1.3 2.3-2.6 3.6-3.8.6-.6 1.3-1.2 2-1.7-.5.4-2.2 1.4.1 0 1.7-1 3.4-2 5.1-2.9 2-1.1-2.1.7.1 0 .8-.3 1.7-.6 2.5-.8.9-.3 1.7-.5 2.6-.7.4-.1 3.2-.6 1.4-.3-1.9.3 1 0 1.4-.1.7 0 1.4-.1 2.1-.1.9 0 1.9.1 2.8.1 4.1.2-2.5-.7 1.5.2 2 .5 3.9 1 5.8 1.7 2.2.7-2-1 .1 0 1 .5 2 1 2.9 1.5.8.4 1.5.9 2.2 1.4 2.3 1.4-.6-.7.6.4 1.5 1.3 2.8 2.7 4.2 4.1 1.9 2 .5.6.1 0 .8 1.1 1.5 2.2 2.2 3.3.4.8.8 1.6 1.3 2.3 1.4 2.4-.2-.9.3.7.7 1.9 1.2 3.8 1.7 5.8.1.6.4 2.9.1.1.2 1.3.2 2.7.2 4.1.1 7.8 6.8 15.4 15 15 8-.4 15.1-6.6 15-15-.4-23.8-15-44.4-37.2-52.7-21-7.8-46.4-1.1-60.9 16-15.3 18.1-18.2 44.2-6.1 64.9 12.2 20.9 36.4 30.9 59.9 26.5 25.9-4.8 43.9-29 44.4-54.7.1-7.8-7-15.4-15-15-8.3.4-14.9 6.6-15.1 15zM560.4 1613.9c0 .8-.6 6 0 2.9-.3 1.8-.7 3.5-1.3 5.3-.3.9-.6 1.7-.9 2.5.2-.7 1.3-2.3-.1.1-1 1.7-1.9 3.4-3 5.1-1.2 1.9 1.5-1.6-.1.1-.6.6-1.2 1.3-1.8 1.9-.6.6-1.2 1.2-1.9 1.8-.3.3-2.4 2-1 .9 1.3-1-.4.3-.6.4-.8.5-1.5 1-2.2 1.4-.8.4-1.6.8-2.3 1.3-3.2 1.9 2.3-.5-1.3.6-1.7.5-3.4 1-5.2 1.4-.6.1-2.9.4-.1.1-.9.1-1.9.2-2.8.2-1.6.1-3.3 0-4.9-.1-2.4-.2 2.2.5-.1 0-1.1-.2-2.2-.5-3.3-.8-.7-.2-5.4-2.1-2.7-.8-1.6-.7-3.1-1.6-4.6-2.5-.7-.5-1.5-1-2.2-1.5.6.4 1.9 1.8 0-.1-1.4-1.4-2.8-2.7-4.1-4.2-1.5-1.7 1.2 1.8-.1-.1-.5-.7-1-1.5-1.4-2.2-.5-.8-.9-1.5-1.3-2.3-.2-.4-1.4-2.9-.6-1.2.5 1.2-.8-2.5-1-3.2-.2-.9-.4-1.8-.6-2.6-.9-4 0 2.7-.2-1.5-.1-1.9-.1-3.7 0-5.6 0-.6.4-2.9 0-.1.2-.9.3-1.8.5-2.7.4-1.5.9-3 1.4-4.5.7-2.2-1 2 0-.1.5-1 1-2 1.5-2.9.4-.6 3.3-4.6 1.4-2.3 1.1-1.3 2.3-2.6 3.6-3.8.6-.6 1.3-1.2 2-1.7-.5.4-2.2 1.4.1 0 1.7-1 3.4-2 5.1-2.9 2-1.1-2.1.7.1 0 .8-.3 1.7-.6 2.5-.8.9-.3 1.7-.5 2.6-.7.4-.1 3.2-.6 1.4-.3-1.9.3 1 0 1.4-.1.7 0 1.4-.1 2.1-.1.9 0 1.9.1 2.8.1 4.1.2-2.5-.7 1.5.2 2 .5 3.9 1 5.8 1.7 2.2.7-2-1 .1 0 1 .5 2 1 2.9 1.5.8.4 1.5.9 2.2 1.4 2.3 1.4-.6-.7.6.4 1.5 1.3 2.8 2.7 4.2 4.1 1.9 2 .5.6.1 0 .8 1.1 1.5 2.2 2.2 3.3.4.8.8 1.6 1.3 2.3 1.4 2.4-.2-.9.3.7.7 1.9 1.2 3.8 1.7 5.8.1.6.4 2.9.1.1.1 1.3.1 2.7.2 4.1.1 7.8 6.8 15.4 15 15 8-.4 15.1-6.6 15-15-.4-23.8-15-44.4-37.2-52.7-21-7.8-46.4-1.1-60.9 16-15.3 18.1-18.2 44.2-6.1 64.9 12.2 20.9 36.4 30.9 59.9 26.5 25.9-4.8 43.9-29 44.4-54.7.1-7.8-7-15.4-15-15-8.4.4-15 6.6-15.1 15zM601.3 1454c0 .8-.6 6 0 2.9-.3 1.8-.7 3.5-1.3 5.3-.3.9-.6 1.7-.9 2.5.2-.7 1.3-2.3-.1.1-1 1.7-1.9 3.4-3 5.1-1.2 1.9 1.5-1.6-.1.1-.6.6-1.2 1.3-1.8 1.9-.6.6-1.2 1.2-1.9 1.8-.3.3-2.4 2-1 .9 1.3-1-.4.3-.6.4-.8.5-1.5 1-2.2 1.4-.8.4-1.6.8-2.3 1.3-3.2 1.9 2.3-.5-1.3.6-1.7.5-3.4 1-5.2 1.4-.6.1-2.9.4-.1.1-.9.1-1.9.2-2.8.2-1.6.1-3.3 0-4.9-.1-2.4-.2 2.2.5-.1 0-1.1-.2-2.2-.5-3.3-.8-.7-.2-5.4-2.1-2.7-.8-1.6-.7-3.1-1.6-4.6-2.5-.7-.5-1.5-1-2.2-1.5.6.4 1.9 1.8 0-.1-1.4-1.4-2.8-2.7-4.1-4.2-1.5-1.7 1.2 1.8-.1-.1-.5-.7-1-1.5-1.4-2.2-.5-.8-.9-1.5-1.3-2.3-.2-.4-1.4-2.9-.6-1.2.5 1.2-.8-2.5-1-3.2-.2-.9-.4-1.8-.6-2.6-.9-4 0 2.7-.2-1.5-.1-1.9-.1-3.7 0-5.6 0-.6.4-2.9 0-.1.2-.9.3-1.8.5-2.7.4-1.5.9-3 1.4-4.5.7-2.2-1 2 0-.1.5-1 1-2 1.5-2.9.4-.6 3.3-4.6 1.4-2.3 1.1-1.3 2.3-2.6 3.6-3.8.6-.6 1.3-1.2 2-1.7-.5.4-2.2 1.4.1 0 1.7-1 3.4-2 5.1-2.9 2-1.1-2.1.7.1 0 .8-.3 1.7-.6 2.5-.8.9-.3 1.7-.5 2.6-.7.4-.1 3.2-.6 1.4-.3-1.9.3 1 0 1.4-.1.7 0 1.4-.1 2.1-.1.9 0 1.9.1 2.8.1 4.1.2-2.5-.7 1.5.2 2 .5 3.9 1 5.8 1.7 2.2.7-2-1 .1 0 1 .5 2 1 2.9 1.5.8.4 1.5.9 2.2 1.4 2.3 1.4-.6-.7.6.4 1.5 1.3 2.8 2.7 4.2 4.1 1.9 2 .5.6.1 0 .8 1.1 1.5 2.2 2.2 3.3.4.8.8 1.6 1.3 2.3 1.4 2.4-.2-.9.3.7.7 1.9 1.2 3.8 1.7 5.8.1.6.4 2.9.1.1.1 1.3.2 2.7.2 4.1.1 7.8 6.8 15.4 15 15 8-.4 15.1-6.6 15-15-.4-23.8-15-44.4-37.2-52.7-21-7.8-46.4-1.1-60.9 16-15.3 18.1-18.2 44.2-6.1 64.9 12.2 20.9 36.4 30.9 59.9 26.5 25.9-4.8 43.9-29 44.4-54.7.1-7.8-7-15.4-15-15-8.4.3-15 6.5-15.1 15zM29.2 2282.5c-1.6 0-3.1-.2-4.7-.8-7.9-2.6-12.1-11.1-9.6-18.9.3-.9.6-1.8.9-2.6 2.7-7.8 11.2-12 19.1-9.3 7.8 2.7 12 11.2 9.3 19.1-.3.8-.5 1.5-.8 2.3-2.1 6.2-7.9 10.2-14.2 10.2zm49.6-89.2c-3.2 0-6.4-1-9.1-3.1-6.6-5-7.8-14.5-2.8-21 18.5-24.2 41.8-49.5 69.2-75.4 6-5.7 15.5-5.4 21.2.6 5.7 6 5.4 15.5-.6 21.2-26.2 24.8-48.4 49-66 71.9-2.9 3.8-7.4 5.8-11.9 5.8zm143.5-138.8c-4.4 0-8.8-1.9-11.8-5.7-5.1-6.5-4.1-15.9 2.4-21.1 23.9-19 50.3-38.8 80.6-60.5 6.7-4.8 16.1-3.3 20.9 3.4 4.8 6.7 3.3 16.1-3.4 20.9-29.9 21.5-55.9 41-79.4 59.6-2.8 2.3-6.1 3.4-9.3 3.4zm162-117.3c-4.8 0-9.5-2.3-12.4-6.5-4.7-6.8-2.9-16.2 3.9-20.9 8.8-6 17.4-11.9 26-17.7 19.8-13.5 38.6-26.3 56.5-38.8 6.8-4.7 16.2-3 20.9 3.8 4.7 6.8 3 16.1-3.8 20.9-18 12.5-36.8 25.3-56.7 38.9-8.5 5.8-17.2 11.7-25.9 17.7-2.6 1.7-5.5 2.6-8.5 2.6zm157.2-122.5c-3.3 0-6.7-1.1-9.5-3.4-6.4-5.2-7.4-14.7-2.2-21.1 18-22.1 35.7-49.5 52.9-81.4 3.9-7.3 13-10 20.3-6.1 7.3 3.9 10 13 6.1 20.3-18 33.6-36.9 62.6-56 86.2-2.9 3.6-7.2 5.5-11.6 5.5zm96.7-174.6c-1.9 0-3.8-.4-5.7-1.1-7.7-3.1-11.4-11.9-8.2-19.6 11.7-28.8 23.2-60.1 34.1-93.1 2.6-7.9 11.1-12.1 18.9-9.6 7.9 2.6 12.1 11.1 9.6 18.9-11.1 33.6-22.8 65.6-34.8 95-2.4 6-8 9.5-13.9 9.5zm63.1-190c-1.3 0-2.6-.2-3.9-.5-8-2.2-12.7-10.4-10.6-18.4 15.3-56.6 23.2-96.2 23.3-96.6 1.6-8.1 9.5-13.4 17.6-11.8 8.1 1.6 13.4 9.5 11.8 17.6-.3 1.6-8.2 40.9-23.8 98.6-1.7 6.7-7.8 11.1-14.4 11.1zM1303.3 1576.9c-15.7.9-31.4 1.5-47.2 2-39.2 1.4-78.4 2.2-117.6 2.3-50.1.2-100.3-.6-150.4-3.1-25.4-1.3-50.8-2.9-76.2-5.3-12.2-1.1-24.4-2.4-36.6-3.9-2.7-.3-5.4-.7-8.1-1-2.7-.3.6.1 1 .1-.8-.1-1.7-.2-2.5-.3l-4.5-.6c-5.8-.8-11.7-1.7-17.5-2.7-20.2-3.3-40.3-7.3-60-13-8.5-2.4-16.9-5.2-25.2-8.4-.9-.3-1.7-.7-2.6-1-.4-.2-.9-.4-1.3-.5-2.5-1 3.1 1.4 1.4.6-1.8-.8-3.7-1.6-5.5-2.5-3.3-1.6-6.6-3.2-9.8-5-2.9-1.6-5.6-3.4-8.3-5.2-6.7-4.6-16.7-1.2-20.5 5.4-4.4 7.5-1.3 15.9 5.4 20.5 13.4 9.3 29 15.6 44.4 20.7 18.7 6.3 38 10.7 57.4 14.4 48.6 9.2 98.1 13.7 147.5 16.6 51 3.1 102.1 4.2 153.2 4.3 41.5.1 83-.6 124.5-2 19.4-.6 39-1 58.4-2.4h.8c7.8-.4 15.4-6.6 15-15-.5-7.8-6.8-15.5-15.2-15z" transform="matrix(-.32212 0 0 .32212 7.11 883.222)"/>
    </g>
  </g>
  <g style="display:inline;opacity:.97000002">
    <g style="display:inline;stroke:#000;stroke-width:8.08860588;stroke-linecap:round;stroke-linejoin:round;stroke-miterlimit:4;stroke-dasharray:none;stroke-opacity:1">
      <path style="color:#000;font-style:normal;font-variant:normal;font-weight:400;font-stretch:normal;font-size:medium;line-height:normal;font-family:sans-serif;font-variant-ligatures:normal;font-variant-position:normal;font-variant-caps:normal;font-variant-numeric:normal;font-variant-alternates:normal;font-feature-settings:normal;text-indent:0;text-align:start;text-decoration:none;text-decoration-line:none;text-decoration-style:solid;text-decoration-color:#000;letter-spacing:normal;word-spacing:normal;text-transform:none;writing-mode:lr-tb;direction:ltr;text-orientation:mixed;dominant-baseline:auto;baseline-shift:baseline;text-anchor:start;white-space:normal;shape-padding:0;clip-rule:nonzero;display:inline;overflow:visible;visibility:visible;opacity:1;isolation:auto;mix-blend-mode:normal;color-interpolation:sRGB;color-interpolation-filters:linearRGB;solid-color:#000;solid-opacity:1;vector-effect:none;fill:#000;fill-opacity:1;fill-rule:nonzero;stroke:#fff;stroke-width:4.19533491;stroke-linecap:butt;stroke-linejoin:miter;stroke-miterlimit:4;stroke-dasharray:none;stroke-dashoffset:0;stroke-opacity:1;color-rendering:auto;image-rendering:auto;shape-rendering:auto;text-rendering:auto;enable-background:accumulate" d="M142.963 67.771c-7.371.257-14.13 1.658-20.125 4.493-12.691 6.004-23.776 22.34-34.817 43.363-11.04 21.022-21.574 46.9-30.769 72.111-9.195 25.212-17.036 49.746-22.604 67.979-2.783 9.116-4.999 16.658-6.527 21.914-.764 2.628-1.358 4.686-1.762 6.072-.201.693-.356 1.222-.455 1.549a16.178 16.178 0 0 1-.094.303 4.045 4.045 0 0 0-.22.86c-.22 1.614.447 2.564.797 3.027.349.462.59.643.78.793.381.3.595.408.81.525.158.086.324.15.478.225-1.68 1.416-3.455 3.266-4.709 6.064-1.588 3.544-2.102 8.276-.45 13.623 1.653 5.346 5.32 11.332 11.893 18.244 3.969 4.175 10.33 7.558 18.881 11.037 8.552 3.48 19.278 6.887 31.672 10.182 24.788 6.59 56.227 12.718 89.654 17.658 66.855 9.88 141.424 15.067 186.637 9.178 45.026-5.865 82.173-22.54 112.326-39.137 30.022-16.525 53.404-32.936 69.762-38.597 12.764-2.88 22.791-.6 33.924 3.32 11.186 3.94 23.297 9.619 39.006 12.539 31.715 5.89 79.86 6.183 106.531-16.834a4.045 4.045 0 0 0-4.096-6.836s-14.356 5.637-34.783-.898a4.045 4.045 0 0 0-.002 0c-14.215-4.54-27.578-13.943-49.143-34.346a4.045 4.045 0 0 0-.029-.03c-10.7-9.914-23.239-18.591-35.67-24.101-9.783-4.336-19.568-6.767-28.45-5.879 1.383-9.638-2.694-20.488-8.349-30.539-7.089-12.601-16.984-24.187-24.933-30.76l.107.094c-13.002-11.546-19.398-33.726-22.181-53.13-1.588-11.061.124-16.927 1.773-19.919.813-1.475 1.616-2.269 2.158-2.713.124-.066.867-.564.867-.564a4.045 4.045 0 0 0-3.293-7.377s-.29.185-.33.203l-.021-.047s-1.327.892-1.723 1.117c-.267.18-.288.124-.564.348-.018.015-.04.042-.059.057-2.65 1.568-8.406 5.267-15.297 13.662-8.74 10.647-17.584 27.656-18.326 52.486-.727 24.564 4.009 45.359 6.62 61.88 1.304 8.262 2.058 15.44 1.523 21.349-.535 5.898-2.203 10.427-5.85 14.34a4.045 4.045 0 0 0-.02.02c-1.941 2.08-3.623 2.87-5.722 3.075-2.1.205-4.82-.334-8.229-1.863-6.815-3.059-15.967-9.976-27.3-19.309-22.667-18.665-54.395-46.842-99.4-73.164a4.045 4.045 0 0 0-.003 0c-37.62-21.996-80.987-47.895-120.578-65.832-19.795-8.969-38.644-15.96-55.523-19.443-8.44-1.742-16.422-2.628-23.793-2.372zm.348 8.124c6.52-.225 13.84.525 21.81 2.17 15.941 3.29 34.348 10.066 53.82 18.888 38.945 17.645 82.165 43.423 119.834 65.447 44.265 25.889 75.456 53.58 98.344 72.426 11.444 9.424 20.729 16.673 29.131 20.444 4.201 1.885 8.283 2.927 12.324 2.533 3.847-.375 7.45-2.23 10.387-5.182a4.045 4.045 0 0 0 .465-.42c5.02-5.373 7.363-12.018 8.01-19.152.646-7.134-.249-14.862-1.588-23.342-2.68-16.96-7.218-36.99-6.526-60.377.689-23.04 8.716-38.12 16.494-47.596.62-.755 1.187-1.245 1.797-1.927-.324 3.718-.313 7.97.434 13.177 2.896 20.195 9.08 44.055 24.818 58.03a4.045 4.045 0 0 0 .108.093c6.841 5.658 16.506 16.882 23.037 28.49 6.53 11.61 9.448 23.328 6.078 30.026A4.045 4.045 0 0 0 567 235.27c7.52-2.553 18.198-.87 29.582 4.175 11.384 5.046 23.34 13.275 33.45 22.64 21.855 20.676 36.31 31.07 52.206 36.147 7.53 2.41 14.36 3.23 20.268 3.356-24.646 10.341-59.658 10.073-83.977 5.557-14.58-2.71-26.07-8.087-37.799-12.217-11.728-4.13-23.896-6.917-38.593-3.551a4.045 4.045 0 0 0-.405.115c-18.612 6.359-41.574 22.906-71.273 39.254-29.7 16.348-65.827 32.518-109.47 38.203-43.457 5.66-118.02.654-184.41-9.158-33.196-4.906-64.408-11.001-88.757-17.475-12.174-3.236-22.636-6.572-30.703-9.855-8.067-3.283-13.754-6.682-16.068-9.117-5.994-6.302-8.876-11.343-10.026-15.06-1.149-3.72-.72-6.092.102-7.929.806-1.798 2.164-3.104 3.244-3.878.433.196.655.322 1.297.586 2.712 1.111 7.534 2.877 16.32 5.63 13.628 4.27 41.747 11.977 81.137 22.098 14.511 4.215 26.662 7.454 33.262 8.566.096.024.13.035.226.059l.002-.008c.081.013.251.062.33.074a4.045 4.045 0 0 0 1.616-7.918c-13.524-3.351-20.754-5.357-31.676-8.158-13.868-3.994-30.171-8.94-45.713-13.838-15.812-4.983-30.912-9.9-42.016-13.66-5.552-1.88-10.11-3.472-13.224-4.623-.647-.239-.93-.364-1.446-.563.384-1.325.795-2.75 1.4-4.834a1684.75 1684.75 0 0 1 6.497-21.81c5.54-18.142 13.344-42.553 22.467-67.568s19.578-50.646 30.332-71.122c10.753-20.475 22.27-35.627 31.115-39.812 4.773-2.257 10.493-3.457 17.014-3.682zM30.426 291.818c.063.026.147.058.213.084l.37 1.97c-.085-.145-.212-.235-.28-.395a3.966 3.966 0 0 1-.303-1.659z" transform="scale(-1.1918 1.1918) rotate(8.507 -4660.23 266.04)"/>
      <path style="color:#000;font-style:normal;font-variant:normal;font-weight:400;font-stretch:normal;font-size:medium;line-height:normal;font-family:sans-serif;font-variant-ligatures:normal;font-variant-position:normal;font-variant-caps:normal;font-variant-numeric:normal;font-variant-alternates:normal;font-feature-settings:normal;text-indent:0;text-align:start;text-decoration:none;text-decoration-line:none;text-decoration-style:solid;text-decoration-color:#000;letter-spacing:normal;word-spacing:normal;text-transform:none;writing-mode:lr-tb;direction:ltr;text-orientation:mixed;dominant-baseline:auto;baseline-shift:baseline;text-anchor:start;white-space:normal;shape-padding:0;clip-rule:nonzero;display:inline;overflow:visible;visibility:visible;opacity:1;isolation:auto;mix-blend-mode:normal;color-interpolation:sRGB;color-interpolation-filters:linearRGB;solid-color:#000;solid-opacity:1;vector-effect:none;fill:#000;fill-opacity:1;fill-rule:nonzero;stroke:#fff;stroke-width:4.19533491;stroke-linecap:butt;stroke-linejoin:miter;stroke-miterlimit:4;stroke-dasharray:none;stroke-dashoffset:0;stroke-opacity:1;color-rendering:auto;image-rendering:auto;shape-rendering:auto;text-rendering:auto;enable-background:accumulate" d="M207.552 284.216c-8.505 0-15.896 6.032-15.819 13.864-.077 7.831 7.314 13.864 15.819 13.864 8.504 0 15.896-6.033 15.818-13.864.078-7.832-7.314-13.864-15.818-13.864zm0 7.849c4.461 0 7.533 2.88 7.489 5.96a4.168 3.925 0 0 0 0 .108c.044 3.082-3.028 5.962-7.49 5.962-4.46 0-7.53-2.88-7.487-5.962a4.168 3.925 0 0 0 0-.107c-.044-3.081 3.026-5.961 7.488-5.961z" transform="scale(-1.1918 1.1918) rotate(8.507 -4660.23 266.04)"/>
    </g>
  </g>
  <g style="display:inline">
    <g style="stroke:#000;stroke-width:8.08860588;stroke-linecap:round;stroke-linejoin:round;stroke-miterlimit:4;stroke-dasharray:none;stroke-opacity:1">
      <path style="fill:none;stroke:#000;stroke-width:8.08860588;stroke-miterlimit:4;stroke-dasharray:none;stroke-opacity:1" d="M486.47 249.44c17.36-18.58-2.61-52.28-1.19-100.23 1.43-47.87 33.75-64.18 33.75-64.18s-10.33 4.037-6.98 27.38c2.84 19.8 9.13 42.82 23.5 55.58 14.79 12.23 39.12 45.62 30.15 63.45 18.09-6.14 46.27 8.4 67.08 27.68 21.72 20.55 35.63 30.45 50.69 35.26 21.63 6.92 37.47.82 37.47.82-24.75 21.36-72.19 21.67-103.15 15.92-30.29-5.63-47.2-22.11-74.75-15.8-34.98 11.95-92.86 66.09-181.53 77.64-88.67 11.55-298.26-20.39-323.39-46.83-25.136-26.43-2.101-35.33-3.753-34.14-.224-.23 6.034 5.98 133.22 37.5-22.82-3.67-138.2-40.99-137.99-42.53.324.11 51.896-190.66 94.97-211.04 43.07-20.368 140.96 38.97 216.25 82.99 89.27 52.21 125.84 111.73 145.65 90.53z" transform="scale(-1.1918 1.1918) rotate(8.507 -4660.23 266.04)"/>
      <path style="stroke:#000;stroke-width:9.70477009;stroke-miterlimit:4;stroke-dasharray:none;stroke-opacity:1" transform="matrix(-1.01243 .15144 .14258 .95325 -13.73 881.97)" d="M220 314.51a13.571 12.143 0 1 1-27.14 0 13.571 12.143 0 1 1 27.14 0z"/>
    </g>
  </g>
  <g style="display:inline">
    <path style="display:inline;opacity:1;fill:#000;fill-opacity:1;stroke:#000;stroke-width:5.30000019;stroke-linecap:round;stroke-linejoin:round;stroke-miterlimit:4;stroke-dasharray:none;stroke-opacity:1;paint-order:stroke markers fill" d="M559.596 396.74c-25.112 4.485-49.532 12.987-67.911 13.727-20.97.064-51.032-1.827-71.97-3.438-5.047-3.967-4.213-2-11.59-3.152-4.553-.73-4.698-1.187-8.292.925-2.193 1.443-5.467 2.707-10.269 6.94-.912.805 14.309-.997 24.792.057 2.755.278 28.29 1.942 46.054.888 15.092-.896 67.94-12.501 90.018-17.423.515-1.021 7.943.286 15.169-.124 2.841-.16 6.946-1.413 8.632-1.931 19.385-5.953 46.577-5.424 45.544-6.278-14.99-4.657-47.37 7.394-60.177 9.808z" transform="translate(-795 921.3)"/>
  </g>
</svg>
